<svg width="323" height="215" viewBox="0 0 323 215" fill="none" xmlns="http://www.w3.org/2000/svg">
<path d="M293.238 0.0551927C292.114 0.19575 291.024 0.424156 290.076 1.05666C283.838 5.1504 287.932 14.5853 294.995 13.8298C303.534 12.9162 301.636 -0.98142 293.238 0.0551927Z" fill="#FDE8A7"/>
<path d="M288.67 2.09326L288.846 2.26932L288.67 2.09326Z" fill="#FFFF00"/>
<path d="M53.5875 2.97168C51.8481 3.8853 54.1497 4.97462 53.5875 2.97168V2.97168Z" fill="white"/>
<path d="M163.925 3.56916C162.186 3.81514 160.482 4.39494 159.006 5.37884C149.553 11.6688 155.58 27.0071 166.737 25.4083C168.248 25.1975 169.811 24.6001 171.094 23.8095C180.722 17.8182 175.346 1.93518 163.925 3.56916Z" fill="#5151EF"/>
<path d="M162.695 3.67456L162.871 3.85062L162.695 3.67456Z" fill="#FF00FF"/>
<path d="M161.114 4.20166L161.29 4.37771L161.114 4.20166Z" fill="#FFFF80"/>
<path d="M244.219 4.20166V4.90445L245.449 4.72875V4.37736L244.219 4.20166Z" fill="white"/>
<path d="M170.075 4.55298L170.25 4.72868L170.075 4.55298ZM159.884 4.72868L160.06 4.90437L159.884 4.72868ZM170.426 4.72868L170.602 4.90437L170.426 4.72868ZM196.429 5.08007L197.132 5.78286C197.237 5.16792 197.062 4.99222 196.429 5.08007Z" fill="white"/>
<path d="M171.48 5.43164L171.656 5.60769L171.48 5.43164Z" fill="white"/>
<path d="M73.4413 7.18848L73.2656 7.36417C73.5292 8.11967 73.8806 8.36564 74.6712 8.41835L73.4413 7.18848Z" fill="white"/>
<path d="M156.546 7.54004L156.722 7.7161L156.546 7.54004Z" fill="#FFFF80"/>
<path d="M173.764 7.54004L173.94 7.7161L173.764 7.54004Z" fill="white"/>
<path d="M155.316 9.47266L155.492 9.64872L155.316 9.47266Z" fill="white"/>
<path d="M174.994 9.47266L175.17 9.64872L174.994 9.47266Z" fill="#FFFF80"/>
<path d="M154.965 10.1753L155.141 10.3514L154.965 10.1753Z" fill="white"/>
<path d="M175.521 10.7024L175.697 10.8785L175.521 10.7024Z" fill="#FFFF80"/>
<path d="M183.779 11.4053L183.955 12.4595L184.658 11.4053H183.779Z" fill="white"/>
<path d="M175.873 11.9324L176.049 12.1084L175.873 11.9324Z" fill="#FF00FF"/>
<path d="M154.438 12.1079L154.614 12.284L154.438 12.1079Z" fill="#FFFF80"/>
<path d="M154.262 12.6353L154.438 12.8113L154.262 12.6353Z" fill="white"/>
<path d="M291.306 13.3379L291.481 13.5136L291.306 13.3379ZM291.833 13.5136L292.008 13.6893L291.833 13.5136Z" fill="#FFFF00"/>
<path d="M191.51 17.5546L191.685 16.6761C190.983 16.7991 190.86 17.045 190.983 17.7303L180.089 19.6629L180.265 20.19L200.646 16.1314L205.39 15.0597L207.498 14.2163L200.47 15.6746L191.51 17.5546ZM154.262 16.149L154.438 16.3247L154.262 16.149ZM56.223 18.2573L56.0473 17.0275C55.0107 17.3437 55.2039 18.1695 56.223 18.2573ZM38.829 18.9601C39.725 18.8196 39.8129 18.2046 39.8832 17.3789C39.0398 17.6248 38.8641 18.1168 38.829 18.9601ZM256.518 18.433C257.132 18.3276 257.291 18.1695 257.396 17.5546C256.781 17.66 256.623 17.8181 256.518 18.433ZM316.957 18.9601C316.483 17.414 315.341 19.2237 316.957 18.9601V18.9601Z" fill="white"/>
<path d="M167.088 4.72878V4.90448L169.021 5.43157C168.722 4.50038 167.931 4.48281 167.088 4.72878Z" fill="#7F7FF5"/>
<path d="M161.641 6.30988L163.047 5.78279C162.379 5.27327 161.782 5.46653 161.641 6.30988Z" fill="#7F7FF5"/>
<path d="M160.938 11.9322C160.851 10.878 162.045 8.66422 161.536 7.92629C160.956 7.10052 159.586 7.29378 158.83 7.69789C157.143 8.62908 156.036 10.3509 156.019 12.266H156.546C156.862 10.1576 158.795 7.68032 161.114 8.22498C160.78 9.01561 160.113 9.78868 160.113 10.6847C160.095 13.2323 162.414 12.7931 163.679 11.1943C164.698 9.91167 163.539 7.92629 165.331 6.97753C166.385 6.43287 166.93 7.94386 167.791 8.22498C167.562 6.0112 165.015 5.36112 163.837 7.34649C163.24 8.36554 163.767 9.73597 163.117 10.6496C162.625 11.37 161.747 11.7916 160.938 11.9322Z" fill="#7F7FF5"/>
<path d="M170.953 9.47245C173.202 10.105 171.867 15.0772 170.25 15.8854C168.739 16.6409 167.316 15.2705 165.858 15.7273C164.962 16.0084 164.364 16.9923 164.329 17.8883C164.101 21.8591 169.512 23.8093 171.304 19.9967C169.934 20.19 168.739 21.6658 167.263 21.332C165.489 20.9455 164.066 17.7654 165.858 16.6058C166.561 16.1489 167.404 16.6058 168.142 16.7639C169.583 17.0626 171.375 16.6936 172.095 15.2705C172.587 14.3041 173.097 11.2294 172.798 10.1752C172.587 9.34947 171.357 8.26014 170.953 9.47245Z" fill="#7F7FF5"/>
<path d="M158.83 11.7566L158.127 11.5809C157.829 12.354 157.442 13.1973 157.46 14.0407C157.583 18.5561 163.187 16.0787 164.804 14.3921C165.384 13.7947 165.893 13.1446 166.016 12.2837C166.069 11.8445 165.805 10.8078 166.297 10.5619C167.018 10.1753 167.791 12.231 168.511 12.4594C168.335 11.4755 166.982 8.43593 165.63 10.0523C165.085 10.6849 165.489 11.7039 165.225 12.4594C164.786 13.6717 163.416 14.7962 162.362 15.4638C160.956 16.3774 158.566 15.9206 158.233 14.0407C158.074 13.25 158.584 12.477 158.83 11.7566Z" fill="#7F7FF5"/>
<path d="M174.291 14.0408L173.237 17.5547C174.502 17.1682 174.977 15.2004 174.643 14.0408H174.291Z" fill="#7F7FF5"/>
<path d="M167.79 18.9602C168.722 19.0481 169.864 19.6103 170.25 18.4331C169.424 18.4858 168.054 18.0115 167.79 18.9602ZM158.303 18.4331C157.547 21.1037 161.044 22.2985 163.047 22.2985V21.7714C160.868 21.7538 159.375 20.4361 158.654 18.4331H158.303Z" fill="#7F7FF5"/>
<path d="M154.965 18.6089L155.14 18.7846L154.965 18.6089ZM87.1458 36.0029L97.6876 33.0863L126.678 25.2678L143.193 21.2268L151.451 18.9603C150.344 18.521 148.517 19.3468 147.41 19.6631C144.388 20.524 141.313 21.1916 138.274 21.9296C126.027 24.8988 113.94 28.4655 101.729 31.5578C98.1971 32.4538 94.7007 33.4201 91.1868 34.404C90.0272 34.7203 87.8661 34.9663 87.1458 36.0029Z" fill="white"/>
<path d="M155.843 20.1899L156.019 20.366L155.843 20.1899Z" fill="#FF00FF"/>
<path d="M161.465 22.2983V22.474H162.695L161.465 22.2983Z" fill="#5151EF"/>
<path d="M157.6 22.4741L157.776 22.6502L157.6 22.4741Z" fill="#FF00FF"/>
<path d="M80.2935 22.6499C80.5394 23.3 80.8381 23.4757 81.5233 23.3527V23.0013L80.2935 22.6499ZM203.281 23.0013C203.07 23.7744 203.141 24.2663 203.984 24.4069L203.633 23.0013H203.281ZM159.884 24.0555L160.06 24.2312L159.884 24.0555ZM160.938 24.5826L161.114 24.7583L160.938 24.5826ZM169.372 24.5826L169.548 24.7583L169.372 24.5826ZM161.641 24.7583L161.817 24.934L161.641 24.7583Z" fill="white"/>
<path d="M161.993 24.9338L162.169 25.1099L161.993 24.9338Z" fill="#FF00FF"/>
<path d="M168.318 24.9338L168.494 25.1099L168.318 24.9338Z" fill="white"/>
<path d="M162.695 25.1096L162.871 25.2857L162.695 25.1096Z" fill="#FF00FF"/>
<path d="M167.615 25.1096L167.791 25.2853L167.615 25.1096ZM166.912 25.2853L167.088 25.461L166.912 25.2853ZM318.012 25.8124L318.89 26.5152L318.714 25.6367L318.012 25.8124ZM146.707 28.4479H147.41L147.585 26.1638C146.373 25.9705 146.707 27.6045 146.707 28.4479ZM310.984 27.218L311.159 28.6236H311.511L311.335 27.218H310.984ZM249.314 27.5694C249.419 28.2722 249.701 28.5709 250.368 28.7993L250.544 28.6236C250.28 27.9735 250.017 27.6748 249.314 27.5694ZM67.6433 27.7451L67.4677 27.9208L67.819 28.975H68.1704C68.311 28.3424 68.2231 28.0613 67.6433 27.7451ZM148.464 28.7993V29.502H149.518V28.7993H148.464ZM143.544 29.3263V29.8534L144.95 30.0291V29.3263H143.544ZM146.707 31.7861C146.566 32.5767 146.32 33.4201 147.234 33.7188L147.41 31.7861H146.707ZM120.528 55.8566C121.934 55.6809 123.234 54.9078 124.569 54.451C127.169 53.5725 129.84 52.8346 132.476 52.0615C145.811 48.1962 158.83 43.3821 172.183 39.5871C176.347 38.4099 180.511 37.1976 184.658 35.9501C185.677 35.6514 188.382 35.3352 188.699 34.2459C171.744 38.1639 155.509 44.8931 138.801 49.6896C134.285 50.9898 129.717 52.2197 125.272 53.6955C123.902 54.1523 121.354 54.5916 120.528 55.8566ZM87.4971 54.2753C93.2951 53.4144 99.2337 51.5696 104.891 49.9532C113.395 47.5286 122.109 45.1918 130.719 43.2064L130.543 42.6793C120.071 46.0878 109.178 48.2665 98.566 51.2182C95.9657 51.9386 93.2951 52.3602 90.6597 52.94C89.6055 53.1684 88.1296 53.3266 87.4971 54.2753ZM223.487 52.5184V52.8697H224.365V52.5184H223.487Z" fill="white"/>
<path d="M26.8817 70.9666L16.1641 69.7016L3.33826 68.3312C3.46124 69.5962 4.37487 72.1614 5.48176 72.9169C6.81706 73.8129 9.48765 73.7778 11.0689 74.0062C15.0045 74.586 18.9226 75.3063 22.8406 75.9564C24.334 76.2024 28.4278 76.1673 29.1481 77.6431C29.7279 78.8379 31.0808 81.5963 30.9051 82.8965C30.7294 84.2142 28.7968 85.9536 28.0764 87.1132C26.3546 89.9419 24.9666 93.0517 24.0881 96.2494C21.5053 105.667 22.4541 115.945 25.8977 125.064C29.113 133.585 34.6299 141.193 40.9023 147.711C51.9712 159.202 65.5877 168.022 80.4692 173.767C84.5454 175.348 88.8324 176.719 93.1194 177.597C95.667 178.124 99.0053 178.159 101.377 179.214C104.364 180.531 107.14 182.517 109.986 184.115C116.997 188.051 123.919 192.11 130.894 196.116C134.004 197.89 137.096 200.069 140.382 201.492C137.94 203.987 135.708 206.763 133.407 209.398C132.634 210.277 131 211.577 130.736 212.736C130.508 213.738 132.844 214.16 133.53 214.072C134.742 213.896 135.796 212.157 136.569 211.313C138.748 208.959 141.032 206.183 143.527 204.18C144.704 203.231 145.811 205.269 147.058 205.146C148.815 204.971 150.414 203.319 152.154 202.897C152.61 203.864 155.263 205.427 156.37 205.217C157.688 204.953 158.848 203.723 160.236 204.075C162.977 204.795 165.999 207.395 169.021 206.675C171.217 206.148 173.29 203.565 174.819 202.019C178.332 198.487 181.565 194.587 184.552 190.599C185.94 188.736 187.75 186.558 188.365 184.274C189.261 180.988 185.272 178.493 184.359 175.664C183.639 173.416 185.343 170.798 184.253 168.461C183.375 166.563 181.46 164.842 180.177 163.19C176.452 158.429 172.552 154.142 170.092 148.607C171.375 148.308 172.693 147.764 173.782 147.008C174.133 146.762 174.924 146.112 174.379 145.655C173.448 144.882 170.215 145.954 169.038 145.972L173.782 138.944C175.1 139.313 175.521 138.399 176.593 137.872C177.032 137.644 177.559 137.749 177.999 137.538C179 137.046 179.843 135.869 180.634 135.078C180.722 136.238 181.477 136.431 182.356 135.693C183.357 134.85 185.905 131.389 185.571 129.983C185.431 129.386 184.587 128.964 184.148 128.613C182.83 127.594 181.477 126.258 179.931 125.608C181.671 123.149 184.289 121.058 186.432 118.932C186.994 118.37 188.013 116.947 188.892 117.052C191.65 117.368 194.426 121.567 197.483 120.408C200.189 119.389 199.065 113.907 201.841 113.556C202.438 113.485 203.141 114.241 203.633 114.522C204.88 115.225 207.762 117.386 209.079 117.175V116.824L206.444 115.067L206.971 114.188H207.147C207.621 114.715 208.008 114.996 208.728 114.891L207.498 113.661V113.485C208.008 112.765 207.199 112.22 207.568 111.5C208.833 108.987 211.732 107.266 213.823 105.509C214.385 105.034 215.387 103.769 216.178 103.752C217.197 103.734 218.708 104.929 219.621 105.368C221.659 106.352 223.733 107.318 225.771 108.302C226.667 108.724 227.756 109.567 228.757 109.602C230.233 109.655 232.061 108.495 233.15 107.599C234.046 106.862 234.766 105.895 235.364 104.894C238.684 99.289 230.655 97.9185 228.775 93.9829C228.564 93.5437 228.687 93.0342 228.441 92.5949C227.317 90.592 225.121 88.7647 223.504 87.1483C222.397 86.0414 221.326 84.6886 219.99 83.8628C219.059 83.2654 217.952 83.5817 217.003 82.9843C215.282 81.8774 213.525 80.5597 211.926 79.2771C211.399 78.8554 211.223 78.1351 210.643 77.7837C209.413 77.0457 207.797 76.7119 206.462 76.2024C203.246 74.9901 200.031 73.7602 196.798 72.583C194.198 71.6343 191.773 70.4747 189.261 69.4205C188.259 68.9988 187.785 68.2609 186.608 68.2082C184.517 68.1028 182.813 68.9285 181.46 70.5098C180.933 71.1248 180.617 72.1614 179.896 72.583C179.229 72.9696 177.876 72.9169 177.12 72.9344C171.744 73.0926 166.315 73.7954 160.956 74.3049C159.498 74.4454 158.022 74.5157 156.564 74.6563C156.072 74.709 155.334 74.5684 154.912 74.8847C154.332 75.3415 154.894 76.5538 154.982 77.1336L151.82 77.3093C151.697 76.1673 151.082 75.5699 150.274 74.8144C149.588 74.1643 148.745 73.1277 147.779 72.9344C145.003 72.3546 142.701 75.5172 142.684 77.854C138.028 77.854 133.284 78.2581 128.628 78.5743C126.59 78.7149 124.007 79.3122 122.004 78.8906C118.613 78.1702 116.311 73.3912 112.833 72.952C110.777 72.6885 109.688 76.8525 107.562 76.7471C105.559 76.6416 103.749 74.4103 101.764 73.9183C98.6714 73.1453 95.3508 75.1834 92.2761 74.4981C91.0462 74.217 89.9393 72.7763 88.9378 72.0384C88.1296 71.441 87.4444 71.81 86.6538 71.4234C85.4063 70.8436 84.686 69.6489 83.3155 69.2448C82.8411 70.4395 83.7548 71.2477 84.5454 72.056C81.4531 72.1614 79.6083 69.0867 76.8147 68.1906C77.2013 67.9974 79.4853 67.3824 78.4839 66.6621C77.7635 66.1525 76.2525 66.4337 75.4092 66.4337C73.9684 66.4337 72.9845 66.0998 71.7195 65.397C66.8 62.6737 61.9332 60.0207 56.7853 57.7718C54.9756 56.9812 53.4997 55.7513 51.5144 55.312C45.611 53.9767 38.7236 56.05 34.1204 59.845C32.1877 61.4439 31.3971 63.236 30.2902 65.3619C29.5698 66.7499 27.3385 66.1174 26.2667 67.0662C25.3179 67.8392 26.4776 70.0706 26.8817 70.9666Z" fill="#10183C"/>
<path d="M30.9226 65.3443C33.8392 64.9226 35.438 61.7425 37.5991 59.9504C40.9725 57.1392 44.9959 55.6809 49.3708 55.6809C47.9301 55.0836 45.5933 55.6282 44.0999 55.9093C38.7763 56.8932 32.7674 59.9152 30.9226 65.3443Z" fill="#444E7B"/>
<path d="M279.358 55.5755C276.828 55.962 274.281 56.7878 272.155 58.2461C270.31 59.5111 268.746 61.0924 267.516 62.9547C259.61 74.9724 270.345 90.6446 284.278 88.4484C298.369 86.2346 302.62 67.5053 291.657 58.8961C289.882 57.5081 287.844 56.6121 285.683 56.0674C283.645 55.5579 281.467 55.2592 279.358 55.5755Z" fill="#ED9FC6"/>
<path d="M33.7339 64.8169C34.9638 64.5182 36.422 64.6588 37.5992 64.1844C39.0048 63.6222 40.1468 61.953 41.4646 61.1448C45.1893 58.8432 49.0547 58.5094 53.2362 59.3703C52.7443 56.0145 49.6345 55.8739 46.7355 56.3483C41.9741 57.1038 35.8422 60.1961 33.7339 64.8169Z" fill="#3778C9"/>
<path d="M53.0605 56.9106C53.2537 57.508 54.2025 59.265 53.5173 59.7394C53.1132 60.0205 52.4455 59.6867 52.0063 59.5988C50.794 59.3528 49.5465 59.3177 48.3166 59.388C44.627 59.5461 40.2697 61.6193 38.1262 64.6589L41.9916 67.47C45.4176 62.9898 52.2347 60.0205 57.9097 61.2855C61.1425 62.0059 64.6389 64.5183 67.4676 66.1699C73.9157 69.9122 79.8894 73.514 85.5644 78.3984C87.8485 80.3662 90.2379 82.2637 92.4166 84.3545C93.4883 85.3736 95.0696 87.3062 96.4576 87.8333C97.2482 88.132 98.5484 87.4819 99.2688 87.1657C96.6157 84.3018 93.2599 81.9475 90.3082 79.4174C87.5673 77.0631 84.9319 74.3925 82.0505 72.249C77.904 69.1567 73.1953 67.0132 68.6975 64.4656C63.7428 61.6018 58.4895 58.6852 53.0605 56.9106Z" fill="#78B5EE"/>
<path d="M53.3591 59.9502L53.482 60.0029L53.3591 59.9502Z" fill="#395783"/>
<path d="M293.765 60.9517L293.941 61.1277L293.765 60.9517Z" fill="#FF0000"/>
<path d="M53.1833 61.7073L53.3062 61.7599L53.1833 61.7073Z" fill="#647CA0"/>
<path d="M62.1968 63.9387C57.6638 60.1963 51.1278 61.4965 46.384 64.0792C44.3284 65.2037 41.2185 67.3121 43.7486 69.2799C44.0648 69.5258 44.4162 69.8597 44.8028 70.0002C45.4704 70.2286 45.9448 69.6137 46.384 69.2096C47.5085 68.1554 48.7384 67.1364 50.0737 66.3633C53.7106 64.3076 58.0854 63.4116 62.1968 63.9387Z" fill="#B5DBFF"/>
<path d="M60.264 62.8845L60.4406 63.0611L60.264 62.8845Z" fill="#6880A3"/>
<path d="M60.6155 63.0601L60.7915 63.2361L60.6155 63.0601Z" fill="#637B9F"/>
<path d="M57.5758 63.8157L57.6987 63.8683L57.5758 63.8157Z" fill="#4B5D81"/>
<path d="M61.4412 63.8157L61.564 63.8683L61.4412 63.8157Z" fill="#7992B6"/>
<path d="M295.874 63.9385L296.05 64.115L295.874 63.9385Z" fill="#FF00FF"/>
<path d="M45.8569 70.7908C47.9302 71.4408 49.6871 68.9284 51.4792 68.0148C55.0635 66.2051 58.8936 65.4144 62.8995 65.3442C62.3373 63.8683 59.2977 64.1846 57.98 64.3427C54.0268 64.8171 47.6315 66.8376 45.8569 70.7908Z" fill="#DC3644"/>
<path d="M63.251 64.4658C63.6375 65.5551 64.5863 65.8538 65.535 66.3809C67.1866 67.3121 68.6624 68.6825 70.6302 68.6825V68.5068L63.251 64.4658Z" fill="#3778C9"/>
<path d="M266.532 64.4658L266.708 64.6419L266.532 64.4658Z" fill="#FF0000"/>
<path d="M31.4497 65.8713C32.2579 69.3677 33.4175 72.8465 34.5595 76.2374C34.8933 77.2389 36.0178 79.3648 35.7015 80.419C35.4731 81.2097 33.3472 81.9476 32.6795 82.4747C30.9753 83.7924 29.7278 85.6724 28.6034 87.4996C27.0748 90.0121 25.3178 93.1746 24.8259 96.1088C23.7366 102.627 26.5126 109.356 28.8142 115.26C29.4116 114.75 29.7103 113.889 30.3955 113.503C33.3296 111.869 37.7396 112.976 40.9197 111.992C41.9739 111.658 41.9036 110.34 42.87 109.901C45.9447 108.46 49.8627 108.829 53.0428 107.67C54.3957 107.178 55.3093 105.649 56.7325 105.052V104.876C53.4821 105.298 49.441 105.491 46.3663 106.598C44.8905 107.125 43.5025 108.162 42.1496 108.935C40.7967 109.708 39.479 110.498 38.1086 111.236C37.6869 111.465 37.072 111.939 36.5624 111.711C35.7894 111.377 35.3326 109.971 35.0163 109.251C33.9446 106.756 33.4175 104.208 33.1539 101.52C32.6268 96.2845 34.1378 88.4835 38.1262 84.6885C39.4263 83.4586 41.4644 82.8085 43.0105 81.9652C46.6123 80.0149 50.2668 78.135 53.9037 76.2199C52.709 73.0573 48.5801 72.6356 45.8217 71.2301C43.6782 70.1408 41.8685 68.3135 40.0237 66.8025C39.2857 66.1876 38.4951 65.2212 37.5639 64.905C36.1408 64.4482 32.8377 65.2739 31.4497 65.8713Z" fill="#3778C9"/>
<path d="M122.636 65.1684L122.812 65.8711L123.515 65.6955L123.339 64.9927L122.636 65.1684Z" fill="white"/>
<path d="M61.4939 65.8713V66.0471H63.2509L61.4939 65.8713Z" fill="#758EB2"/>
<path d="M59.5085 66.0996L59.6314 66.1523L59.5085 66.0996Z" fill="#667EA2"/>
<path d="M47.6139 71.4937C49.3006 72.0735 51.7779 73.9534 53.5876 73.7953C54.712 73.6899 55.9244 72.4776 56.9258 71.9856C59.0869 70.9139 61.5994 70.0529 63.9537 69.561C63.7956 68.7176 63.8307 66.785 63.1279 66.2227C62.3197 65.6078 60.1411 66.0822 59.2099 66.1876C55.1689 66.6268 50.2493 68.2257 47.6139 71.4937Z" fill="#B5DBFF"/>
<path d="M265.83 66.0469L266.006 66.2229L265.83 66.0469Z" fill="#FF0000"/>
<path d="M26.3545 67.4525C26.618 68.4013 26.9343 70.1231 27.6019 70.8611C28.252 71.5638 29.5873 71.0368 30.3428 71.5287C31.4848 72.2491 32.2579 76.2022 32.1525 77.4673L29.6927 77.1159L31.6254 82.5625L35.315 80.4541L32.9783 73.0748L30.9226 66.2227L26.3545 67.4525Z" fill="#444E7B"/>
<path d="M49.7222 66.3984L49.8982 66.5745L49.7222 66.3984Z" fill="#657CA1"/>
<path d="M74.4955 66.9253V67.101H77.3066L74.4955 66.9253Z" fill="#303963"/>
<path d="M75.0226 67.1011V67.2768H77.4823L75.0226 67.1011Z" fill="#4D5786"/>
<path d="M265.478 67.2769L265.654 67.4529L265.478 67.2769Z" fill="#FF00FF"/>
<path d="M286.035 67.2769V67.4526H287.967L286.035 67.2769Z" fill="#F6CDE1"/>
<path d="M285.683 67.4526L287.265 68.6825V69.0339C282.521 70.1583 276.74 69.2798 271.979 68.6825C272.857 69.6312 274.158 69.6664 275.317 70.088C279.235 71.4761 282.837 71.3179 286.913 71.3179L285.683 72.5478C286.527 72.8816 287.774 72.4248 288.67 72.3018C290.989 71.9856 295.136 72.1788 296.998 70.457C297.508 69.9826 297.121 68.05 296.717 67.558C296.19 66.9255 294.626 67.7688 293.941 67.804C292.904 67.8567 291.798 68.1378 290.778 68.1202C289.074 68.0675 287.458 67.4526 285.683 67.4526Z" fill="white"/>
<path d="M63.655 67.9268L63.7077 68.0497L63.655 67.9268Z" fill="#596F93"/>
<path d="M180.968 72.5479L185.712 72.3722C185.554 70.7909 186.678 70.0354 187.996 69.3853C185.677 67.1891 181.723 70.1935 180.968 72.5479Z" fill="#3778C9"/>
<path d="M63.8308 68.981L63.8835 69.1038L63.8308 68.981Z" fill="#637A9D"/>
<path d="M273.912 68.8582V69.0339L277.777 69.2096L273.912 68.8582Z" fill="#F8D8E8"/>
<path d="M4.2168 69.0337C4.49791 70 5.00743 71.7746 5.86835 72.3719C7.29149 73.3558 10.4189 73.268 12.1232 73.5491C18.6064 74.6384 25.1072 75.9386 31.6255 76.7468C31.3795 75.5872 31.0809 72.7409 30.097 72.003C29.605 71.634 28.5333 71.7043 27.9359 71.634L23.0164 71.1069C16.7967 70.4393 10.4716 69.2972 4.2168 69.0337Z" fill="#3778C9"/>
<path d="M68.6975 69.2095V69.3852H70.1031L68.6975 69.2095Z" fill="#496D9E"/>
<path d="M53.7633 74.4805C54.2201 76.0442 55.4324 77.7484 56.7502 78.6972C57.7868 77.3443 59.5262 76.378 60.9669 75.4995C65.2188 72.8992 70.2085 71.3179 75.1983 71.3179C73.2657 69.5082 71.1924 69.3853 68.6976 69.3853C63.6023 69.3853 57.8746 71.5639 53.7633 74.4805Z" fill="#78B5EE"/>
<path d="M119.474 69.3853L119.65 70.2637L120.352 69.3853H119.474Z" fill="white"/>
<path d="M83.6318 69.9124C83.9481 70.8787 84.9144 71.6869 85.9159 71.845V71.6693L83.9832 69.9124H83.6318Z" fill="#4C5685"/>
<path d="M192.213 71.3181C191.545 70.8788 190.877 70.4923 190.104 70.2639C189.085 69.9652 185.448 70.0179 186.327 72.0033C187.486 74.586 191.527 73.6548 192.213 71.3181Z" fill="#3778C9"/>
<path d="M124.393 71.3179H124.745L125.096 70.4394L124.92 70.2637C124.341 70.4921 124.253 70.7205 124.393 71.3179ZM224.541 71.4936L225.068 70.2637C224.4 70.4921 224.435 70.8435 224.541 71.4936Z" fill="white"/>
<path d="M74.8469 71.3179V71.4936H75.5497L74.8469 71.3179Z" fill="#4A709F"/>
<path d="M280.588 71.4937V71.6694H282.696L280.588 71.4937Z" fill="#F5CADF"/>
<path d="M48.3167 71.6694L48.4927 71.8455L48.3167 71.6694Z" fill="#637B9F"/>
<path d="M192.74 71.6694L192.037 73.075L198.889 74.832C197.308 73.1277 194.83 72.4776 192.74 71.6694Z" fill="#B5DBFF"/>
<path d="M73.2656 71.845V72.0207H74.8469L73.2656 71.845Z" fill="#466998"/>
<path d="M56.9258 79.0486V79.2243C57.9624 80.2609 58.876 81.6489 60.0883 82.4922C60.8438 83.0369 61.6345 82.5625 62.3724 83.2829C64.8146 85.6548 67.0459 89.0633 69.9274 90.8906C71.0342 91.5933 72.5804 90.9257 73.7927 91.2419C75.3388 91.6461 76.6566 93.526 77.658 94.6856H77.8337L81.3477 92.9286C78.1148 88.3429 73.371 84.4073 69.4003 80.4541C68.3461 79.4 67.2743 78.3633 66.2377 77.2916C65.8863 76.9226 65.289 76.4658 65.3768 75.886C65.8336 72.4072 70.6829 75.4995 71.86 76.4131C75.3915 79.1716 78.5365 82.3868 81.6991 85.5494C83.2803 87.1306 85.4941 89.1511 86.4429 91.1717L92.9437 89.116L95.9305 88.0091C93.0139 85.7251 90.2731 83.0896 87.4971 80.6298C86.0915 79.3824 84.5981 77.7308 82.9289 76.8524C81.7869 76.255 80.2935 76.7645 79.0636 76.5712C77.5526 76.3428 74.7942 73.8655 74.4955 72.3721H76.9552C75.6199 71.5639 72.8439 71.9153 71.3329 72.1612C66.185 72.987 60.6857 75.3589 56.9258 79.0486ZM83.456 72.7235C84.4575 74.0939 86.0388 75.1305 87.3214 76.2374C90.0095 78.5566 92.7153 80.8407 95.4034 83.1423C96.563 84.1438 98.443 86.5157 99.9715 86.7968C101.043 87.0076 102.958 86.0589 104.013 85.7251L100.323 82.176L92.4166 75.7103L88.0241 72.2315L83.456 72.7235Z" fill="#78B5EE"/>
<path d="M56.223 72.1963L56.3991 72.3723L56.223 72.1963Z" fill="#62799D"/>
<path d="M85.5117 72.4248L85.6346 72.4775L85.5117 72.4248Z" fill="#426492"/>
<path d="M75.1982 72.8992C77.0079 75.4644 78.8352 75.886 81.699 75.886C80.0123 73.5317 77.9391 72.8992 75.1982 72.8992Z" fill="#3778C9"/>
<path d="M183.428 72.8992V73.0749H184.306L183.428 72.8992Z" fill="#3B5986"/>
<path d="M156.195 75.1833C157.793 77.8012 161.975 76.8524 164.452 76.624C172.218 75.8861 180.037 75.4468 187.82 74.8319C187.135 76.0793 184.043 75.6401 182.725 75.8158C177.436 76.5186 172.042 76.378 166.736 76.993C158.76 77.9417 150.678 77.8187 142.666 78.3634C133.073 79.0135 123.462 79.6987 113.852 80.1028C112.235 80.1731 111.128 79.0135 109.635 78.9608C106.174 78.8554 102.185 79.6636 98.7417 80.1028C99.5148 81.0691 101.184 82.7558 102.431 83.0369C103.609 83.3005 105.313 82.6504 106.472 82.422C109.371 81.8422 112.323 81.2097 115.257 80.8583C124.499 79.7163 133.407 81.2448 142.315 83.7749C144.897 84.5128 149.922 85.4967 151.626 87.6578L161.817 86.0238L169.196 85.0223C167.791 86.4455 163.433 86.2873 161.466 86.6212C154.332 87.7983 147.129 88.6065 140.03 89.9418V90.1175C140.645 90.4689 141.26 91.119 141.963 91.242C144.335 91.6461 147.849 90.3459 150.221 89.9594C157.829 88.6944 165.419 87.0428 173.062 86.0765V85.9008L169.249 83.7749L167.264 81.1746L160.236 81.6489L148.464 82.4044L141.436 82.7207V82.545C144.757 81.7368 148.745 81.6665 152.154 81.6665V81.4908L150.748 80.2609C153.208 80.0677 156.036 79.2243 158.479 79.4879C159.779 79.6284 160.569 80.9813 161.993 80.9637C168.493 80.8759 175.187 79.9798 181.671 79.3649C189.19 78.6445 196.745 76.2375 204.336 76.2375V76.0618L199.416 74.3048V74.4805L200.295 75.8861C197.536 75.113 194.549 73.7601 191.685 73.5317C190.666 73.4439 189.753 74.217 188.699 74.0764C187.539 73.9183 186.731 72.9519 185.536 72.9168C175.785 72.583 165.963 75.1833 156.195 75.1833Z" fill="#78B5EE"/>
<path d="M181.144 73.0747V73.2504H181.846L181.144 73.0747Z" fill="#5179A9"/>
<path d="M179.035 73.2505V73.4262H179.562L179.035 73.2505Z" fill="#3C5A88"/>
<path d="M108.405 77.4674C111.655 79.3649 113.869 79.6109 117.541 79.2595C118.578 79.1541 119.808 79.4879 120.704 78.873C118.754 77.6782 116.979 76.22 115.082 74.9549C114.484 74.5508 113.553 73.6372 112.797 73.6548C111.497 73.6899 109.125 76.4835 108.405 77.4674Z" fill="#78B5EE"/>
<path d="M143.72 75.3587V75.5344C144.23 76.1669 144.809 77.0454 145.53 77.4671C147.093 78.3456 148.833 76.2548 150.045 75.5344C148.025 72.9341 146.145 73.6369 143.72 75.3587Z" fill="#3778C9"/>
<path d="M176.927 73.4263V73.602H177.454L176.927 73.4263Z" fill="#395783"/>
<path d="M174.941 73.6548L175.064 73.7075L174.941 73.6548Z" fill="#375380"/>
<path d="M199.24 74.1289L199.416 74.305L199.24 74.1289Z" fill="#6BA2D8"/>
<path d="M92.7681 75.1832L93.9979 76.4131H94.1736C95.3332 75.5873 97.0726 76.2725 95.5792 77.4672C96.4928 78.662 97.5997 78.1525 98.9175 78.0295C101.535 77.7835 104.188 77.4145 106.824 77.2915C105.243 76.2374 103.099 74.6912 101.202 74.3574C98.5485 73.9006 95.4738 75.1832 92.7681 75.1832Z" fill="#78B5EE"/>
<path d="M198.362 74.3047L198.539 74.4813L198.362 74.3047Z" fill="#5C7196"/>
<path d="M98.2146 74.4805V74.6562H98.7417L98.2146 74.4805Z" fill="#4A709F"/>
<path d="M164.277 74.4805V74.6562H164.804L164.277 74.4805Z" fill="#344F7A"/>
<path d="M162.168 74.6562V74.8319H162.695L162.168 74.6562Z" fill="#334E79"/>
<path d="M198.889 74.6562V75.0077H199.24L198.889 74.6562Z" fill="#718AAE"/>
<path d="M92.7681 75.0076V75.1833H94.525L92.7681 75.0076Z" fill="#2D446D"/>
<path d="M100.534 75.1306C99.181 75.7631 101.043 77.1335 102.027 76.6591C103.222 76.0793 101.535 74.6738 100.534 75.1306Z" fill="#10183C"/>
<path d="M187.117 75.3589V75.5346H187.644L187.117 75.3589Z" fill="#3F5E8C"/>
<path d="M155.316 75.5347L155.667 77.1159H157.952V76.9402L155.316 75.5347ZM66.4135 76.7645V76.9402C71.5614 82.0882 77.3945 87.0252 81.8748 92.753L86.0915 91.3474C82.7708 86.4806 78.0446 82.2463 73.617 78.3985C71.4032 76.4834 69.1368 74.6913 66.4135 76.7645Z" fill="#3778C9"/>
<path d="M200.066 75.7632L200.189 75.8159L200.066 75.7632Z" fill="#40608E"/>
<path d="M79.9421 75.886V76.0617H81.8748L79.9421 75.886Z" fill="#234781"/>
<path d="M102.484 76.009L102.537 76.1319L102.484 76.009Z" fill="#5179AA"/>
<path d="M180.265 75.886V76.0617H180.792L180.265 75.886Z" fill="#3D5D8A"/>
<path d="M143.369 76.0618L143.193 77.8187H144.95L143.369 76.0618ZM148.288 77.4674C148.921 77.4674 150.467 77.7485 150.959 77.2917C151.451 76.8173 150.73 76.132 150.221 76.1672C149.413 76.2023 148.727 76.87 148.288 77.4674Z" fill="#3778C9"/>
<path d="M177.981 76.0618V76.2375H178.684L177.981 76.0618Z" fill="#5B89BC"/>
<path d="M96.282 76.2373V76.7644H96.4577L96.282 76.2373Z" fill="#456998"/>
<path d="M80.1178 76.4131V76.5888H81.8748L80.1178 76.4131Z" fill="#293E68"/>
<path d="M81.8748 76.4131V76.5888H82.5775L81.8748 76.4131Z" fill="#5D8CBF"/>
<path d="M188.874 78.697V78.8727L202.227 78.3456L207.85 79.2944L210.661 78.8727C209.852 77.4496 206.075 76.4657 204.511 76.6414C199.381 77.2388 194.022 78.6619 188.874 78.697Z" fill="#DC3644"/>
<path d="M57.6286 104.173C57.3123 102.838 57.7516 101.415 58.1557 100.132C55.731 100.238 52.7793 101.344 50.425 100.396C47.4557 99.2185 47.7895 96.2317 50.6007 95.1072C53.0956 94.1233 55.7135 94.1409 58.3314 94.1409C59.5612 94.1409 61.0019 94.5801 61.9156 93.5962C62.2845 93.2097 62.9873 92.6123 62.917 92.0325C62.8468 91.4352 62.1264 90.8905 61.7399 90.4513C60.5978 89.1335 59.368 87.9036 58.2259 86.5859C57.857 86.1642 56.3987 85.0222 56.7325 84.3897C57.0839 83.7572 59.2274 83.4761 59.9126 83.2477C59.0869 81.4907 57.1015 79.9797 55.8189 78.5038C55.3972 78.0119 54.8174 77.0104 54.1146 76.9753C53.4821 76.9226 52.6915 77.6078 52.182 77.9241C50.2493 79.1188 48.5977 80.6298 47.157 82.3868C43.5025 86.8495 41.8861 92.6826 42.8173 98.3752C43.1336 100.325 44.2405 104.946 46.261 105.825C47.157 106.211 48.791 105.649 49.7222 105.473C52.3401 104.981 55.0107 104.665 57.6286 104.173Z" fill="#78B5EE"/>
<path d="M198.485 76.8174L198.608 76.8701L198.485 76.8174Z" fill="#385480"/>
<path d="M81.3478 77.2915C81.8924 78.9607 83.8427 76.7117 81.3478 77.2915V77.2915Z" fill="#10183C"/>
<path d="M266.357 77.116C266.919 80.6826 268.939 81.0692 271.979 81.649C276.617 82.5274 282.31 81.0867 286.737 79.5757L283.575 79.1189L266.357 77.116Z" fill="white"/>
<path d="M105.77 77.2915V77.4672H106.297L105.77 77.2915Z" fill="#537CAD"/>
<path d="M194.619 77.3442L194.742 77.3969L194.619 77.3442Z" fill="#40608F"/>
<path d="M103.96 77.52L104.083 77.5727L103.96 77.52Z" fill="#446795"/>
<path d="M107.65 77.6958L107.772 77.7485L107.65 77.6958Z" fill="#51668A"/>
<path d="M106.244 77.8716L106.367 77.9243L106.244 77.8716Z" fill="#667EA2"/>
<path d="M97.1604 78.8729C98.1619 79.8568 99.3917 79.4703 100.674 79.3824C103.468 79.1716 106.297 78.5742 109.108 78.5215C108.054 77.643 107.035 77.889 105.77 77.9768C103.046 78.1701 99.7783 78.0998 97.1604 78.8729Z" fill="#B5DBFF"/>
<path d="M158.127 77.8186V77.9943H158.83L158.127 77.8186Z" fill="#334E79"/>
<path d="M82.0505 77.9944V78.1701H82.5776L82.0505 77.9944Z" fill="#36527F"/>
<path d="M148.113 77.9944V78.1701H148.64L148.113 77.9944Z" fill="#426492"/>
<path d="M157.425 78.1701V78.5215L157.6 78.6972C159.832 78.2931 161.448 80.2258 163.574 80.4542C162.748 78.8729 159.094 77.6782 157.425 78.1701Z" fill="#10183C"/>
<path d="M189.876 78.0471L189.999 78.0998L189.876 78.0471Z" fill="#537CAD"/>
<path d="M102.607 78.1699V78.3456H103.134L102.607 78.1699Z" fill="#839FC4"/>
<path d="M144.95 78.1699V78.3456H145.653L144.95 78.1699Z" fill="#537BAD"/>
<path d="M100.622 78.3984L100.744 78.4511L100.622 78.3984Z" fill="#4C5F82"/>
<path d="M197.132 78.3457V78.5214H198.011L197.132 78.3457Z" fill="#9B2C42"/>
<path d="M98.566 78.5215V78.6972H99.0932L98.566 78.5215Z" fill="#637B9F"/>
<path d="M108.001 78.5742L108.124 78.6269L108.001 78.5742Z" fill="#637A9E"/>
<path d="M193.267 78.5215V78.6972H193.969L193.267 78.5215Z" fill="#59223E"/>
<path d="M135.814 78.6973V78.873H136.341L135.814 78.6973Z" fill="#40618F"/>
<path d="M249.49 78.873V79.2244C250.034 79.3122 250.193 79.2244 250.368 78.6973L249.49 78.873Z" fill="white"/>
<path d="M104.838 78.9258L104.961 78.9785L104.838 78.9258Z" fill="#667EA2"/>
<path d="M120.352 79.0486V79.2243H121.055L120.352 79.0486Z" fill="#2D446D"/>
<path d="M197.835 78.8728V79.0485H202.754L197.835 78.8728Z" fill="#264E8B"/>
<path d="M193.618 79.0486V79.2243H194.672L193.618 79.0486Z" fill="#274F8D"/>
<path d="M168.493 80.9814C168.862 83.4236 171.937 85.8658 174.467 85.7955C176.329 85.7428 178.262 85.163 180.089 84.8467C184.183 84.1615 188.294 83.4587 192.388 82.7735C197.185 81.9653 202.948 81.8072 207.498 80.1029C205.407 78.1175 199.978 79.0487 197.308 79.0487C190.842 79.0487 184.236 79.5231 177.805 80.138C174.731 80.4192 171.586 80.9814 168.493 80.9814Z" fill="#3778C9"/>
<path d="M126.326 79.2241V79.3998H127.029L126.326 79.2241Z" fill="#466998"/>
<path d="M45.6813 106.457C44.9082 104.138 43.2391 102.24 42.6066 99.7807C41.2186 94.3341 42.4309 88.6591 45.4529 83.968C46.5422 82.2813 48.0532 81.0163 49.1952 79.3999C46.7003 80.1203 44.3108 81.8772 41.9916 83.0544C40.832 83.6342 39.1278 84.2491 38.2669 85.2506C34.6475 89.3443 33.7339 95.441 33.7339 100.659C33.7339 103.453 34.2961 106.141 35.3503 108.741C35.6138 109.409 36.0179 110.885 36.7559 111.148C37.4587 111.394 38.6007 110.428 39.1805 110.112C41.3591 108.917 43.4324 107.511 45.6813 106.457Z" fill="#3778C9"/>
<path d="M99.3917 79.4526L99.5146 79.5053L99.3917 79.4526Z" fill="#4F6387"/>
<path d="M105.19 79.4526L105.313 79.5053L105.19 79.4526Z" fill="#5078A9"/>
<path d="M123.515 79.3999V79.5756H124.042L123.515 79.3999Z" fill="#40608E"/>
<path d="M158.127 79.3999V79.5756H159.006L158.127 79.3999Z" fill="#344F7A"/>
<path d="M208.377 79.7514V79.9271C210.661 81.5611 213.648 84.8115 216.459 83.6167C215.387 82.2112 212.593 79.892 210.836 79.4879C210.063 79.3122 209.15 79.6811 208.377 79.7514Z" fill="#78B5EE"/>
<path d="M296.225 79.3999L296.401 79.576L296.225 79.3999Z" fill="#FF0000"/>
<path d="M103.134 79.5757V79.7514H103.661L103.134 79.5757Z" fill="#466998"/>
<path d="M177.225 79.6284L177.348 79.6811L177.225 79.6284Z" fill="#426392"/>
<path d="M101.201 79.7515V79.9272H101.729L101.201 79.7515ZM114.203 79.9272V80.1029H114.73L114.203 79.9272Z" fill="#395682"/>
<path d="M171.603 80.1555L171.726 80.2082L171.603 80.1555Z" fill="#456897"/>
<path d="M121.582 80.2783V80.454H122.988L121.582 80.2783Z" fill="#547EB1"/>
<path d="M207.849 80.2783C206.743 81.3325 204.406 81.2798 202.93 81.5258C198.942 82.1934 194.953 82.8084 190.983 83.5463C181.056 85.4087 171.076 86.99 161.114 88.6591C155.07 89.6781 148.341 90.0295 142.49 91.8743C143.316 93.0515 145.196 96.0032 146.584 96.5127C147.726 96.9344 149.94 96.0208 151.099 95.7572C154.719 94.9315 158.356 94.1935 161.993 93.4205C173.184 91.0486 184.359 88.5888 195.551 86.2169C200.716 85.11 205.952 83.599 211.188 82.9138C210.608 81.7717 209.009 80.7703 207.849 80.2783Z" fill="#B5DBFF"/>
<path d="M167.966 80.4541V80.6298H168.493L167.966 80.4541Z" fill="#496D9E"/>
<path d="M116.961 80.6826L117.084 80.7353L116.961 80.6826Z" fill="#4C72A2"/>
<path d="M115.029 80.8584L115.152 80.911L115.029 80.8584Z" fill="#5179AA"/>
<path d="M102.958 83.6166V83.7923L104.54 85.5492C105.963 85.2506 108.194 84.1085 109.635 84.4248C110.865 84.6883 112.885 86.4102 111.216 87.3062C112.428 89.2213 114.994 90.7675 116.838 92.05C117.524 90.5039 119 90.3106 120.528 89.9768C123.497 89.3267 126.554 88.9402 129.489 88.1847C129.383 87.64 129.295 87.1657 129.858 86.8318C130.543 86.4277 131.544 86.4102 132.3 86.2345C134.215 85.7601 137.008 84.6532 138.976 84.8816C139.661 84.9695 140.751 86.0061 139.995 86.6386C139.433 87.113 138.291 87.1657 137.588 87.3062C136.885 87.4292 136.2 87.6225 135.48 87.6752V87.8509L139.521 89.4146L143.738 88.8348L151.117 87.6752C149.957 86.744 148.13 86.2696 146.724 85.7952C144.282 84.9695 141.858 84.1085 139.345 83.476C133.143 81.9123 126.8 80.7176 120.37 80.9987C114.502 81.2447 108.704 82.5097 102.958 83.6166Z" fill="#4D5786"/>
<path d="M155.316 81.8599V82.0356H155.843L155.316 81.8599Z" fill="#36517D"/>
<path d="M144.95 82.0354V82.2111H145.477L144.95 82.0354Z" fill="#5078A9"/>
<path d="M152.856 82.0354V82.2111H153.383L152.856 82.0354Z" fill="#395783"/>
<path d="M199.539 82.0881L199.662 82.1408L199.539 82.0881Z" fill="#839FC4"/>
<path d="M150.572 82.2112V82.3869H151.099L150.572 82.2112Z" fill="#4A6F9F"/>
<path d="M211.241 82.6855L211.293 82.8084L211.241 82.6855Z" fill="#61789B"/>
<path d="M57.1016 84.671L61.5994 89.5905L63.778 91.7691L69.4004 91.3474L63.9537 85.5494L61.494 83.3884L57.1016 84.671ZM212.066 83.2654C203.703 84.3371 195.375 86.832 187.117 88.5363C185.993 88.7647 183.322 88.8877 182.514 89.7135C182.005 90.2406 181.952 91.365 181.794 92.0502C181.671 92.5949 181.354 93.368 181.583 93.9126C181.829 94.4924 182.707 94.7033 183.234 94.9317C185.395 95.8629 186.169 95.9683 188.33 94.9844C194.18 92.2962 200.312 90.0473 206.075 87.1834C208.043 86.1995 211.03 85.321 212.066 83.2654Z" fill="#3778C9"/>
<path d="M293.59 83.2654L293.766 83.4414L293.59 83.2654Z" fill="#FF00FF"/>
<path d="M181.846 89.7662C178.578 90.0297 175.205 91.1015 172.007 91.8043C163.75 93.614 155.263 96.0737 146.883 97.1455L147.761 99.6052L170.426 93.9126L179.562 91.6989C178.912 92.7706 176.681 92.876 175.521 93.1747C171.884 94.0883 168.23 94.9141 164.628 95.9156C166.403 98.4456 168.142 100.238 168.458 103.471C169.302 112.185 159.164 115.453 152.681 117.878C150.713 118.616 148.587 119.793 146.531 120.162C147.129 120.935 148.306 122.27 149.342 122.358C150.643 122.463 152.505 121.444 153.735 121.04C157.67 119.723 161.905 118.493 165.331 116.05C167.422 114.557 169.284 112.66 170.075 110.147C170.514 108.794 170.162 106.159 171.34 105.245C173.167 103.822 175.89 102.979 177.981 102.012C181.038 100.607 184.095 98.6389 187.293 97.5847C188.189 97.286 189.032 97.7604 189.928 97.3739C198.309 93.7721 205.934 88.3782 214.35 84.8642V84.5128C213.876 84.3196 213.279 83.8452 212.769 83.8628C212.119 83.8803 211.504 84.6534 211.012 85.0399C209.94 85.8833 208.746 86.4982 207.498 87.0429C203.088 88.9756 198.485 90.715 194.145 92.8057C191.738 93.9653 188.699 96.021 186.063 96.4602C185.079 96.6184 181.214 95.002 180.95 93.9654C180.669 92.8585 181.548 90.8555 181.846 89.7662Z" fill="#78B5EE"/>
<path d="M196.429 94.5099V94.6856L202.754 92.2961L219.445 85.725L219.094 84.1437L216.81 84.0383L211.012 87.0955L196.429 94.5099Z" fill="#DC3644"/>
<path d="M292.711 84.1438L292.887 84.3199L292.711 84.1438Z" fill="#FF00FF"/>
<path d="M219.797 84.6709L220.148 85.9008L219.094 86.2522V86.4279C221.396 87.3942 222.643 88.6768 224.119 90.6446C224.488 91.119 225.366 91.9272 225.279 92.5773C225.138 93.6314 223.241 94.5626 222.608 95.3884L228.055 99.9038L230.514 101.555L234.028 99.9565C232.886 97.69 229.706 95.9155 227.879 94.1585H227.703L226.825 94.5099L228.055 93.2801C226.983 90.996 224.383 88.9052 222.608 87.1307C221.747 86.2697 220.921 85.198 219.797 84.6709Z" fill="#3778C9"/>
<path d="M86.4429 91.6987C87.62 92.911 91.1515 91.1716 92.5923 90.6972C98.32 88.8348 104.259 86.5859 110.162 85.3736C109.037 84.2491 105.225 85.8655 103.837 86.3048C98.1443 88.1496 92.276 90.3458 86.4429 91.6987Z" fill="#DC3644"/>
<path d="M52.5333 110.674C53.6754 109.813 54.3957 108.513 55.5202 107.634C57.8394 105.807 61.0019 104.946 63.7779 104.068C64.7618 103.752 66.0796 103.119 67.1162 103.207C68.715 103.33 69.3827 105.983 70.9815 105.807C75.1455 105.386 78.9582 101.924 83.1046 101.327C84.1236 101.186 84.721 102.328 85.7401 102.258C88.1998 102.082 90.9231 100.782 93.295 100.097C94.0857 99.8686 95.2804 99.2361 96.1062 99.4294C97.4063 99.7281 99.1106 101.977 99.6201 103.137L91.011 107.529C91.6962 109.585 90.0095 109.69 88.3755 110.34C85.2305 111.588 81.945 112.589 78.8879 114.03L80.9962 117.192C77.4823 118.651 72.7033 119.687 69.98 122.498C68.9259 123.588 67.6257 125.099 67.9947 126.68H68.1704C70.349 122.586 74.2495 121.005 78.3608 119.529C84.967 117.175 92.2057 114.856 99.2687 114.557C100.2 114.522 101.307 114.61 101.992 115.33C102.607 115.98 103.204 117.649 104.364 117.333C105.242 117.087 106.068 116.173 106.824 115.681C108.95 114.293 111.111 112.607 113.5 111.711C115.714 110.867 118.349 110.692 120.704 110.551C121.547 110.498 122.531 110.902 123.339 110.586C124.323 110.2 124.534 109.022 125.325 108.425C126.273 107.722 129.576 106.633 130.718 106.949C131.527 107.178 132.159 107.951 132.827 108.425C133.705 106.545 132.651 105.104 131.597 103.506C128.329 104.841 125.008 106.071 121.758 107.441C119.579 108.355 117.418 109.321 115.257 110.305C112.534 111.553 109.582 113.327 106.648 114.03C105.418 114.311 105.436 112.835 106.138 112.238C107.755 110.867 110.338 110.077 112.27 109.233C115.925 107.634 119.597 106.036 123.339 104.63C125.114 103.962 128.452 103.4 129.77 101.977C130.473 101.222 129.032 99.4645 128.61 98.7442C125.588 99.5875 122.513 100.238 119.474 101.011C118.42 101.274 116.663 102.082 115.609 101.749C113.184 100.958 110.601 97.9711 108.581 96.4074C107.193 95.3357 102.572 92.8935 103.468 90.8554C103.925 89.8188 105.155 89.5552 106.121 89.2038C108.089 88.5186 109.898 87.8861 111.568 86.6211V86.2697C110.18 85.4439 108.598 86.3224 107.175 86.7968C103.942 87.8685 100.622 88.8173 97.3361 89.7661C94.1559 90.6797 90.9231 92.138 87.6727 92.7354C86.7942 92.8935 86.3726 92.138 85.5644 92.1555C84.0534 92.1907 81.7166 93.28 80.2934 93.8598C75.2861 95.9506 71.4559 100.413 66.4134 102.241C61.8101 103.91 53.5875 104.735 52.5333 110.674Z" fill="#78B5EE"/>
<path d="M254.936 86.7793H255.815C255.586 86.1117 255.165 86.1117 254.936 86.7793Z" fill="white"/>
<path d="M187.117 99.4295L193.267 103.225L195.726 104.437L197.835 103.295L202.227 100.431L215.229 91.8745L221.027 87.8335C220.201 87.4997 219.287 86.8496 218.391 86.7793C217.53 86.7091 216.529 87.3416 215.756 87.6578C214.016 88.3782 212.242 89.0283 210.485 89.731C202.789 92.8057 194.268 95.2655 187.117 99.4295Z" fill="#78B5EE"/>
<path d="M276.547 87.8335L276.723 88.0096L276.547 87.8335Z" fill="#FF00FF"/>
<path d="M104.715 90.2932C106.912 93.0165 110.584 95.0721 113.324 97.2507C114.185 97.936 115.521 99.447 116.663 99.5875C118.297 99.7808 120.721 98.6388 122.285 98.1995C121.125 96.6182 119.158 95.6168 117.717 94.299C116.223 92.9462 115.398 91.4176 113.676 90.1877C112.92 89.6607 111.726 88.2199 110.83 88.097C109.248 87.8861 106.156 89.6255 104.715 90.2932Z" fill="#B5DBFF"/>
<path d="M132.476 88.1848V88.3605H133.53L132.476 88.1848Z" fill="#5E7498"/>
<path d="M124.393 97.8482V97.6725C122.882 97.2333 120.651 95.283 122.812 94.0532C125.325 92.63 129.77 91.5407 132.651 91.9272C133.67 92.0678 137.079 93.4909 135.919 94.9843C135.146 95.9682 133.266 96.1439 132.124 96.4251C130.894 96.7237 129.664 97.0751 128.434 97.3211C128.944 98.2874 129.489 100.027 130.437 100.624C131.228 101.116 132.528 100.765 133.354 100.589C135.691 100.08 138.098 99.5349 140.382 98.797C141.524 98.428 144.827 97.8306 145.126 96.4426C145.284 95.7574 144.546 95.0019 144.159 94.51C143 93.0692 141.7 91.8042 140.206 90.7149C135.023 86.9901 129.506 88.589 123.691 89.854C122.039 90.223 119.175 90.223 117.822 91.3299C116.575 92.3313 117.366 93.3328 118.244 94.1586C119.702 95.5466 122.303 98.2347 124.393 97.8482Z" fill="#B5DBFF"/>
<path d="M221.554 88.1848L202.754 100.607L198.01 103.734L196.201 105.263L196.956 107.88L199.416 114.206C201.524 113.608 203.738 110.867 205.39 109.444C209.835 105.614 214.28 101.784 218.743 97.9711C220.219 96.7237 221.677 95.4587 223.135 94.2112C223.627 93.7895 224.488 93.28 224.629 92.6124C224.892 91.5055 222.309 88.9052 221.554 88.1848Z" fill="#3778C9"/>
<path d="M131.369 88.4133L131.492 88.466L131.369 88.4133Z" fill="#819EC2"/>
<path d="M161.237 88.5889L161.36 88.6415L161.237 88.5889Z" fill="#819EC3"/>
<path d="M106.648 89.4146L106.824 89.5906L106.648 89.4146Z" fill="#62789C"/>
<path d="M112.797 89.5903L112.973 89.7664L112.797 89.5903Z" fill="#677FA3"/>
<path d="M138.449 89.5903L138.625 89.7664L138.449 89.5903Z" fill="#5C7296"/>
<path d="M105.243 89.9419L105.419 90.118L105.243 89.9419Z" fill="#60779A"/>
<path d="M152.979 89.9946L153.102 90.0473L152.979 89.9946Z" fill="#85A4C7"/>
<path d="M114.027 90.4688L114.203 90.6448L114.027 90.4688Z" fill="#62799D"/>
<path d="M246.854 91.3472C247.469 91.2418 247.627 91.0837 247.733 90.4688C247.118 90.5742 246.96 90.7323 246.854 91.3472Z" fill="white"/>
<path d="M104.013 90.6445L103.661 92.0501L111.919 98.4279L115.609 101.011C116.065 99.3942 114.291 98.5684 113.149 97.69C110.162 95.3883 107.281 92.5069 104.013 90.6445Z" fill="#3778C9"/>
<path d="M67.8191 94.3343C70.5951 94.8438 71.9655 94.4573 73.4414 91.8745C71.0168 91.4177 68.9084 91.8745 67.8191 94.3343Z" fill="#78B5EE"/>
<path d="M72.9143 91.6987V91.8744H73.7928L72.9143 91.6987Z" fill="#3C5A87"/>
<path d="M58.1556 104.349L63.7779 102.592C62.8819 98.7091 67.0635 94.6857 69.0488 91.8745C67.3797 92.1908 65.1308 91.7515 63.6022 92.5773C62.5481 93.1395 61.7399 94.5802 61.1073 95.5641C59.245 98.428 58.1556 100.905 58.1556 104.349Z" fill="#78B5EE"/>
<path d="M130.719 91.8745V92.0502H131.421L130.719 91.8745Z" fill="#485A7E"/>
<path d="M69.9275 99.6051L77.3068 95.037C76.7797 94.2815 75.3214 92.261 74.3199 92.261C73.6523 92.261 73.0022 93.1746 72.6157 93.6314C71.2101 95.283 70.1032 97.4265 69.9275 99.6051Z" fill="#B5DBFF"/>
<path d="M134.232 92.2258L134.409 92.4019L134.232 92.2258Z" fill="#6880A3"/>
<path d="M135.814 94.6855C133.969 91.1364 128.856 92.542 125.799 93.5084C124.938 93.7895 123.129 94.053 122.637 94.8964C121.143 97.4616 126.555 97.1102 127.556 96.9696C128.751 96.7939 129.893 96.4074 131.07 96.1263C132.686 95.7397 134.32 95.441 135.814 94.6855Z" fill="#78B5EE"/>
<path d="M86.7943 92.7529V92.9286H87.3214L86.7943 92.7529Z" fill="#517BAB"/>
<path d="M107.702 92.7529L107.878 92.929L107.702 92.7529Z" fill="#5D7296"/>
<path d="M116.311 92.9287L116.487 93.1048L116.311 92.9287Z" fill="#5F7599"/>
<path d="M125.448 95.5641C127.398 95.3005 129.313 94.6329 131.246 94.2639C132.036 94.1234 132.88 94.1234 133.178 93.28C131.246 93.5611 129.278 94.0531 127.38 94.5275C126.625 94.7207 125.729 94.7559 125.448 95.5641ZM83.8074 93.5787C82.6654 93.649 79.538 94.7559 78.8176 95.6519C78.0973 96.548 79.2744 98.1644 80.2935 98.1292C81.4706 98.0941 84.5453 96.6007 85.2833 95.6695C85.9334 94.791 84.6859 93.526 83.8074 93.5787Z" fill="#10183C"/>
<path d="M133.231 93.5786L133.284 93.7015L133.231 93.5786Z" fill="#4A6F9F"/>
<path d="M135.638 93.4558L135.814 93.6315L135.638 93.4558ZM143.193 93.4558L143.369 93.6315L143.193 93.4558Z" fill="#667DA1"/>
<path d="M60.0884 94.1584V94.3342H60.6155L60.0884 94.1584Z" fill="#3D5D8A"/>
<path d="M68.1177 94.387L68.2406 94.4396L68.1177 94.387Z" fill="#395682"/>
<path d="M117.893 94.5098L118.069 94.6858L117.893 94.5098Z" fill="#6982A5"/>
<path d="M60.9669 94.8612C57.7516 94.8612 54.8175 94.5098 51.6549 95.318C50.4426 95.6342 48.8262 96.1965 48.7208 97.6723C48.6505 98.7792 49.652 99.605 50.6007 99.9388C52.2874 100.519 56.5744 100.378 58.1206 99.3941C59.1923 98.7265 60.3344 96.0032 60.9669 94.8612Z" fill="#B5DBFF"/>
<path d="M58.8585 94.6855V94.8612H60.2641L58.8585 94.6855Z" fill="#7A95B9"/>
<path d="M110.162 94.6855L110.338 94.8616L110.162 94.6855Z" fill="#5E7498"/>
<path d="M196.201 94.7383L196.324 94.7909L196.201 94.7383Z" fill="#D03443"/>
<path d="M64.1294 102.416C65.6404 101.995 67.8893 101.591 68.9962 100.396C69.7693 99.5525 70.4545 96.39 70.6302 95.2128C69.699 95.1777 68.1529 94.6154 67.3095 95.0547C65.412 96.0034 64.1645 100.466 64.1294 102.416Z" fill="#78B5EE"/>
<path d="M122.338 95.1599L122.391 95.2828L122.338 95.1599Z" fill="#486D9D"/>
<path d="M70.683 95.3357L70.7357 95.4586L70.683 95.3357Z" fill="#466A99"/>
<path d="M57.1016 95.4937C56.5393 95.4937 55.1513 95.6166 54.7648 96.0559C54.2201 96.6533 55.1338 97.4263 55.7136 97.4439C56.2582 97.4615 57.4881 97.1979 57.8922 96.8114C58.4544 96.2492 57.7165 95.4937 57.1016 95.4937Z" fill="#10183C"/>
<path d="M55.9946 95.6167L56.1175 95.6694L55.9946 95.6167Z" fill="#516689"/>
<path d="M71.1572 95.564L71.3333 95.74L71.1572 95.564Z" fill="#5F7599"/>
<path d="M219.621 98.0238C222.222 99.1131 224.664 100.589 227.176 101.854C227.633 102.082 229.443 103.312 229.759 102.399C230.022 101.626 227.545 99.974 227 99.5172C225.964 98.6211 223.627 95.9681 222.257 95.8978C221.308 95.8451 220.113 97.3386 219.621 98.0238Z" fill="#78B5EE"/>
<path d="M75.374 95.9155L75.5501 96.0916L75.374 95.9155Z" fill="#6881A4"/>
<path d="M52.3578 96.1788C49.3183 96.6708 49.7224 100.027 52.7092 99.5346C53.2363 99.4468 54.1499 99.2535 54.3432 98.6737C54.6419 97.7074 53.3593 96.0207 52.3578 96.1788Z" fill="#10183C"/>
<path d="M163.574 96.2316C162.537 96.214 161.255 96.7763 160.236 97.0398L153.032 98.8495C151.626 99.2009 149.588 99.3414 148.341 100.079C147.691 100.466 148.042 101.485 147.656 102.065C147.041 102.996 145.776 103.365 144.774 103.699C142.262 104.507 139.767 105.438 137.219 106.158C136.323 106.404 134.672 106.475 134.057 107.213C132.757 108.794 134.32 109.778 135.462 110.744C137.992 112.923 140.487 115.137 143.017 117.298C143.825 117.983 145.09 119.582 146.18 119.67C147.831 119.81 150.449 118.229 151.978 117.631C157.108 115.593 164.224 113.819 166.982 108.566C168.616 105.438 168.177 101.397 166.174 98.5508C165.629 97.7602 164.646 96.2667 163.574 96.2316Z" fill="#4D5786"/>
<path d="M122.109 96.2668L122.285 96.4429L122.109 96.2668Z" fill="#5F7599"/>
<path d="M146.18 96.2668L146.356 96.4429L146.18 96.2668Z" fill="#62799D"/>
<path d="M120.352 96.4426L120.528 96.6187L120.352 96.4426Z" fill="#667EA2"/>
<path d="M112.622 96.6182L112.798 96.7942L112.622 96.6182Z" fill="#62799C"/>
<path d="M145.653 96.6182C143.65 99.4117 138.08 99.9388 134.935 100.729C133.635 101.046 132.247 101.573 130.894 101.362L132.476 103.997C136.358 103.066 140.206 102.363 143.896 100.729C145.635 99.9564 147.445 98.3927 145.653 96.6182Z" fill="#3778C9"/>
<path d="M24.5975 96.7939V99.078H24.7732L24.5975 96.7939Z" fill="#1D396D"/>
<path d="M73.9684 96.7939L74.1444 96.97L73.9684 96.7939Z" fill="#6880A3"/>
<path d="M59.2098 97.321L59.3859 97.4971L59.2098 97.321Z" fill="#657DA1"/>
<path d="M127.029 97.4966V97.6723H127.907L127.029 97.4966Z" fill="#274E8B"/>
<path d="M116.136 101.186L128.259 98.3752C127.89 97.2508 126.326 97.69 125.448 97.9711C123.216 98.6915 120.88 99.1483 118.596 99.7281C117.559 99.9741 116.452 100.027 116.136 101.186Z" fill="#3778C9"/>
<path d="M143.193 97.6724L143.369 97.8484L143.193 97.6724Z" fill="#637A9E"/>
<path d="M149.87 122.797C150.607 124.203 152.241 123.307 153.383 122.867C156.458 121.725 159.498 120.583 162.52 119.283C165.823 117.86 169.073 115.453 170.531 112.08C171.164 110.604 171.164 107.88 172.113 106.703C173.044 105.561 175.293 104.981 176.575 104.296C180.476 102.188 184.447 99.9038 188.523 98.1996C187.346 97.7076 186.046 98.7091 185.009 99.201C182.092 100.607 179.141 101.924 176.224 103.33C174.977 103.927 172.271 104.648 171.48 105.807C170.813 106.809 170.971 108.777 170.637 109.954C170.075 111.957 168.739 113.626 167.264 115.049C162.713 119.406 155.685 120.9 149.87 122.797Z" fill="#DC3644"/>
<path d="M58.6829 98.3752L58.8589 98.5513L58.6829 98.3752Z" fill="#61779B"/>
<path d="M206.795 108.741C207.849 110.076 208.798 108.917 209.782 108.056C211.24 106.809 212.716 105.579 214.175 104.366C214.702 103.927 215.387 103.101 216.107 103.066C217.109 103.031 218.391 104.068 219.27 104.472C221.923 105.684 224.488 107.09 227.176 108.214C227.194 106.246 228.195 104.946 229.109 103.295C226.684 102.293 224.418 100.905 222.081 99.7455C221.29 99.359 220.166 98.498 219.27 98.498C218.057 98.5156 216.617 100.378 215.756 101.116C212.787 103.646 209.905 106.387 206.795 108.741Z" fill="#3778C9"/>
<path d="M33.5581 98.5508V101.011H33.7338L33.5581 98.5508Z" fill="#2B5CA0"/>
<path d="M115.082 98.5508L115.258 98.7268L115.082 98.5508Z" fill="#6880A4"/>
<path d="M140.733 98.5508L140.909 98.7268L140.733 98.5508Z" fill="#677FA3"/>
<path d="M140.206 98.7266L140.382 98.9026L140.206 98.7266Z" fill="#62799D"/>
<path d="M263.37 98.9023V101.889H264.073V98.9023H263.37Z" fill="white"/>
<path d="M24.0705 99.0781C23.0163 103.154 22.6122 108.32 23.6488 112.431C25.1247 118.299 28.9373 123.764 32.6445 128.42C42.8877 141.281 56.3636 151.998 70.8059 159.817C77.2716 163.313 84.0359 166.194 91.1868 167.934C92.8735 168.338 94.5602 168.584 96.282 168.672C96.7564 168.689 97.4943 168.953 97.916 168.654C98.6715 168.127 98.812 166.511 98.9174 165.667C72.2115 158.147 45.3299 144.636 30.747 119.81C28.34 115.734 26.337 111.254 25.2301 106.633C24.703 104.331 24.949 101.169 24.0705 99.0781Z" fill="#FDE8A7"/>
<path d="M70.6301 99.0781L70.8062 99.2542L70.6301 99.0781Z" fill="#667DA1"/>
<path d="M146.707 99.0781C144.124 102.733 136.956 103.716 132.827 104.525L133.881 106.457C137.167 105.614 140.312 104.56 143.544 103.523C144.616 103.189 146.602 102.891 147.234 101.837C147.708 101.028 147.252 99.8863 147.058 99.0605H146.707V99.0781Z" fill="#3778C9"/>
<path d="M117.19 99.4294L117.366 99.6055L117.19 99.4294Z" fill="#667EA2"/>
<path d="M71.1572 106.282C71.7546 107.476 73.1426 108.443 74.1441 109.321C75.3388 110.375 76.9552 112.958 78.5365 113.345C79.5028 113.573 81.1544 112.572 82.0504 112.22C84.9319 111.096 87.8484 109.725 90.8353 108.917L90.6947 107.406L93.1193 105.895L98.9173 102.785L96.1062 100.027L93.4707 100.554L87.1456 102.416L85.213 102.75L83.1046 101.854L79.2393 103.277L71.1572 106.282Z" fill="#B5DBFF"/>
<path d="M96.1062 99.7808L96.2823 99.9568L96.1062 99.7808Z" fill="#5D7296"/>
<path d="M176.048 105.052C177.454 112.273 172.851 120.179 166.561 123.676L168.95 127.014L173.237 132.285L171.761 127.892L171.234 125.872L173.079 124.273L177.823 120.724L196.095 107.002C195.094 104.05 191.791 102.873 189.243 101.344C188.453 100.87 187.24 99.7808 186.256 99.9389C185.062 100.132 183.797 101.116 182.742 101.678C180.564 102.82 178.315 104.103 176.048 105.052Z" fill="#78B5EE"/>
<path d="M54.2375 100.009L54.3604 100.062L54.2375 100.009Z" fill="#5F769A"/>
<path d="M129.84 99.9565L130.016 100.133L129.84 99.9565Z" fill="#62799D"/>
<path d="M150.045 103.295L151.995 105.14L154.613 104.244L160.411 102.065C159.884 98.3928 154.982 101.011 152.856 101.819C151.96 102.153 150.397 102.293 150.045 103.295Z" fill="#10183C"/>
<path d="M230.339 108.566C229.899 106.036 232.904 102.346 235.434 102.065C235.364 100.027 233.624 100.29 232.271 101.134C230.444 102.276 228.863 104.103 228.037 106.106C227.123 108.285 228.248 109.233 230.339 108.566Z" fill="#3778C9"/>
<path d="M131.544 100.888L131.667 100.94L131.544 100.888Z" fill="#61789B"/>
<path d="M91.011 101.187L91.187 101.363L91.011 101.187Z" fill="#5C7196"/>
<path d="M130.069 101.309L130.121 101.432L130.069 101.309Z" fill="#547DAF"/>
<path d="M52.9375 101.555C52.2347 101.959 52.7267 103.207 53.5349 102.838C54.2904 102.487 53.7106 101.116 52.9375 101.555ZM49.7398 101.854C48.8613 102.17 49.3533 103.453 50.2318 103.154C51.2333 102.82 50.6535 101.538 49.7398 101.854Z" fill="#10183C"/>
<path d="M130.543 102.065C128.03 103.716 124.921 104.542 122.109 105.579C118.719 106.844 115.398 108.337 112.095 109.813C110.531 110.516 106.437 111.553 106.297 113.485C109.758 112.888 113.307 110.604 116.487 109.146C121.319 106.932 126.291 105.034 131.246 103.119L130.543 102.065Z" fill="#DC3644"/>
<path d="M260.207 102.24V102.592L262.316 102.943V102.24H260.207Z" fill="white"/>
<path d="M81.6991 102.24L81.8752 102.417L81.6991 102.24Z" fill="#5F769A"/>
<path d="M264.6 102.24V102.768H266.532V102.24H264.6Z" fill="white"/>
<path d="M49.0723 102.539L49.1249 102.662L49.0723 102.539Z" fill="#4A6F9F"/>
<path d="M230.69 108.039C232.799 107.898 235.662 104.771 235.258 102.592C233.08 103.014 230.901 105.878 230.69 108.039Z" fill="#4D5786"/>
<path d="M57.98 102.768V103.822H58.1557L57.98 102.768Z" fill="#5B89BD"/>
<path d="M80.2935 102.768L80.4692 102.943L80.2935 102.768ZM85.0373 102.768L85.213 102.943L85.0373 102.768Z" fill="#5D7397"/>
<path d="M89.9568 103.224C89.4121 103.347 88.3053 103.664 88.0593 104.208C87.6903 105.017 88.6918 105.895 89.4297 105.772C90.0447 105.667 91.5556 105.245 91.8192 104.612C92.2057 103.716 90.6244 103.084 89.9568 103.224Z" fill="#10183C"/>
<path d="M52.8848 111.552C54.5363 111.429 56.4163 108.864 57.8043 107.88C60.6154 105.895 64.1118 104.507 67.4676 103.822C66.2377 103.33 64.4281 104.349 63.2509 104.753C59.4734 106.071 54.5012 107.371 52.8848 111.552Z" fill="#DC3644"/>
<path d="M96.9847 103.646L97.1608 103.822L96.9847 103.646Z" fill="#5F7599"/>
<path d="M23.192 103.998V104.525H23.3677L23.192 103.998Z" fill="#626060"/>
<path d="M263.018 106.809H263.721L263.545 103.998C262.544 104.331 263.018 105.93 263.018 106.809Z" fill="white"/>
<path d="M80.2935 116.999C79.3271 114.768 77.1485 112.782 75.374 111.166C74.0562 109.971 72.8088 108.706 71.5086 107.494C69.7165 105.825 68.6975 103.769 66.062 104.63C65.3592 104.858 64.4632 105.052 64.3578 105.913C64.1294 107.687 66.5715 110.129 67.6257 111.359C69.33 113.327 71.1924 115.207 73.2656 116.788C74.0914 117.421 75.1631 118.282 76.2524 118.334C77.4999 118.405 79.1339 117.438 80.2935 116.999Z" fill="#B5DBFF"/>
<path d="M66.062 104.525L66.2381 104.701L66.062 104.525Z" fill="#60779A"/>
<path d="M51.7778 105.104L51.9007 105.157L51.7778 105.104Z" fill="#385581"/>
<path d="M64.3579 105.35L64.4106 105.473L64.3579 105.35Z" fill="#677FA3"/>
<path d="M93.9979 105.228L94.174 105.404L93.9979 105.228Z" fill="#667EA2"/>
<path d="M151.099 124.203L154.438 127.189L155.474 128.402L154.086 129.087L149.694 129.649V129.825C152.628 132.039 155.615 134.516 158.11 137.204C159.217 138.381 160.534 140.472 162.344 140.49C163.539 140.507 164.892 139.453 165.858 138.838C168.406 137.204 170.672 135.113 173.237 133.515C172.113 131.002 169.671 128.665 167.984 126.487C167.474 125.819 166.209 124.73 166.139 123.869C166.086 123.236 167.193 122.797 167.615 122.498C169.266 121.339 170.619 119.968 171.867 118.405C175.029 114.434 175.697 110.305 175.697 105.403C174.766 105.667 173.29 106.194 172.64 106.914C171.884 107.757 171.867 109.76 171.533 110.85C170.865 112.958 169.723 114.592 168.16 116.121C163.609 120.531 156.827 122.006 151.099 124.203ZM75.374 118.756C71.7898 116.384 68.6624 113.591 66.0445 110.147C65.043 108.847 63.778 107.301 63.778 105.579C62.8468 105.737 60.5803 106.299 60.3168 107.353C59.9302 108.952 62.0562 111.429 62.9171 112.607C64.5686 114.856 66.5189 117.034 68.6799 118.791C69.4354 119.406 70.472 120.337 71.4911 120.408C72.5277 120.478 74.5834 119.389 75.374 118.756Z" fill="#78B5EE"/>
<path d="M63.655 105.877L63.7077 106L63.655 105.877Z" fill="#3D5D8A"/>
<path d="M140.206 106.369C137.536 106.879 137.518 109.409 139.064 111.184C140.821 113.187 144.212 114.715 146.883 114.065C149.325 113.468 148.991 110.99 147.709 109.444C146.092 107.529 142.754 105.878 140.206 106.369Z" fill="#10183C"/>
<path d="M170.602 106.282V106.809H170.778L170.602 106.282Z" fill="#547DAF"/>
<path d="M91.3624 106.633L91.5385 106.809L91.3624 106.633Z" fill="#61789C"/>
<path d="M175.697 106.633V108.741H175.873L175.697 106.633Z" fill="#5680B3"/>
<path d="M140.382 106.809V106.984H141.436L140.382 106.809Z" fill="#527AAA"/>
<path d="M71.6843 106.984L71.8604 107.16L71.6843 106.984Z" fill="#647CA0"/>
<path d="M139.679 107.108C137.641 107.758 138.695 109.971 139.697 111.026C141.331 112.765 144.651 114.346 147.058 113.45C149.009 112.712 148.042 110.569 147.006 109.479C145.354 107.74 142.104 106.334 139.679 107.108Z" fill="#78B5EE"/>
<path d="M52.8847 108.39C51.3035 108.46 49.6871 108.917 48.1409 109.233C47.5611 109.356 46.5948 109.391 46.138 109.795C45.3122 110.498 46.2785 114.996 47.2976 115.277C47.8949 115.435 48.9316 114.961 49.5465 114.856C51.0926 114.592 53.0429 114.434 54.466 113.749C55.2215 113.38 55.6783 112.659 56.3987 112.255C57.119 111.851 58.1381 112.185 58.7706 111.728C59.5437 111.183 59.4734 110.147 60.4397 109.62L59.7369 107.336C57.2596 108.249 55.9594 110.814 53.7632 111.904C51.1102 113.204 52.5333 109.233 52.8847 108.39Z" fill="#3778C9"/>
<path d="M125.799 108.566C126.994 111.113 131.035 113.45 133.178 115.26C137.079 118.51 140.927 121.831 144.774 125.134C146.11 126.276 147.972 128.595 149.694 129.052C151.24 129.474 153.401 128.63 154.965 128.419L149.694 123.676L137.571 113.169L133.003 109.198L130.719 107.459L125.799 108.566Z" fill="#78B5EE"/>
<path d="M141.085 107.634C139.591 108.109 139.644 109.672 140.593 110.656C141.735 111.869 144.001 112.659 145.653 112.15C147.058 111.693 146.988 110.252 146.127 109.303C145.02 108.091 142.719 107.107 141.085 107.634Z" fill="#10183C"/>
<path d="M196.078 107.511L182.373 117.807L176.048 122.797C176.857 123.307 178.245 124.888 179.211 124.87C179.826 124.853 180.388 124.08 180.792 123.676L184.13 120.337C185.395 119.072 187.029 117.807 187.996 116.296C188.663 115.242 188.804 113.766 189.647 112.835C191.193 111.131 194.514 109.55 196.605 108.566L196.078 107.511Z" fill="#3778C9"/>
<path d="M170.479 107.986L170.531 108.109L170.479 107.986Z" fill="#456897"/>
<path d="M65.3593 108.39L65.5358 108.566L65.3593 108.39Z" fill="#5D7296"/>
<path d="M23.2449 109.391L23.2975 109.514L23.2449 109.391Z" fill="#9F947C"/>
<path d="M101.377 109.427C100.112 109.673 97.1954 110.779 96.3872 111.798C95.4912 112.941 97.09 114.293 98.2145 114.135C99.3917 113.96 102.466 112.607 103.204 111.675C103.942 110.692 102.343 109.233 101.377 109.427Z" fill="#10183C"/>
<path d="M125.272 109.269L124.042 110.85V111.026L141.963 126.241L145.828 129.491L147.585 130.668L149.167 129.649C146.883 126.54 142.789 124.045 139.855 121.515C136.692 118.809 133.53 116.138 130.367 113.433C128.751 112.045 127.117 110.34 125.272 109.269Z" fill="#3778C9"/>
<path d="M196.781 109.269L194.848 115.594C195.797 115.804 198.239 117.087 199.117 116.455C199.75 115.998 199.381 115.084 199.152 114.539C198.467 112.923 198.01 110.534 196.781 109.269ZM202.403 112.958C202.93 113.274 203.685 114.048 204.336 113.995C205.425 113.907 207.305 110.938 207.498 109.971C205.741 108.952 203.176 111.307 202.403 112.958ZM190.28 113.134L194.321 115.242L196.253 109.444C194.426 110.024 191.527 111.676 190.28 113.134Z" fill="#4D5786"/>
<path d="M45.1541 109.795L43.2214 110.323C43.5201 112.308 44.5743 114.17 45.4704 115.945C48.1937 121.374 52.428 126.206 57.2772 129.842C58.9815 131.107 62.0913 133.602 64.3051 133.673C65.043 133.69 65.4998 132.777 65.8863 132.285C66.7121 131.248 67.7136 129.719 69.0489 129.35C71.2978 128.7 73.494 127.927 75.7254 127.277C76.7268 126.979 78.3081 126.838 79.1339 126.17C80.4868 125.063 81.7166 122.287 82.4019 120.706C79.3623 121.409 75.5672 122.375 72.9142 124.062C71.737 124.818 70.0328 127.4 68.6975 127.523C66.3256 127.717 67.9069 124.519 68.3461 123.711C65.7634 123.711 64.2524 124.396 62.021 125.643C61.1074 126.153 59.2099 127.576 58.1557 127.453C56.7325 127.295 54.9756 125.169 53.9389 124.273C51.0575 121.813 47.6841 118.317 46.2259 114.732C45.5758 113.151 45.769 111.271 45.1541 109.795ZM47.6139 115.945C48.914 119.371 52.4807 122.41 55.1688 124.73C55.9243 125.38 57.2421 126.908 58.3314 126.856C60.6857 126.715 63.0401 124.167 65.1836 123.359C67.6082 122.446 69.084 123.219 70.9816 120.882C66.8702 118.457 63.0401 114.399 60.7911 110.164L58.8409 112.343L56.5744 112.677L53.7633 114.504L47.6139 115.945Z" fill="#3778C9"/>
<path d="M120.001 110.498V110.674H120.704L120.001 110.498Z" fill="#476B9A"/>
<path d="M120.704 110.498V110.674H122.109L120.704 110.498Z" fill="#283D66"/>
<path d="M42.5186 110.674C41.9915 112.519 40.6914 112.572 39.0047 112.8C36.4922 113.151 32.908 112.818 30.6064 113.924C29.9211 114.258 29.6752 115.225 29.1656 115.752V115.927C33.7865 123.851 39.1277 130.282 46.2083 136.168C48.5275 138.1 50.9521 140.244 53.5875 141.755C55.0985 137.099 61.9858 138.346 64.305 134.2C56.8555 132.074 50.1614 124.8 46.2961 118.387C44.8554 116.033 44.135 112.835 42.5186 110.674Z" fill="#3778C9"/>
<path d="M118.191 110.727L118.314 110.779L118.191 110.727Z" fill="#496D9E"/>
<path d="M85.2131 110.85L85.3897 111.026L85.2131 110.85Z" fill="#6981A5"/>
<path d="M121.055 111.025V111.201H122.109L121.055 111.025Z" fill="#3E5F8B"/>
<path d="M118.543 111.254L118.666 111.307L118.543 111.254Z" fill="#456897"/>
<path d="M104.54 117.878V118.053C105.945 119.459 108.036 120.987 108.932 122.797C109.846 124.677 109.125 126.698 110.619 128.595C112.059 130.44 114.256 131.933 115.978 133.532C119 136.343 121.776 139.4 124.762 142.247C126.484 143.881 128.048 145.62 129.858 147.166C131.667 148.712 133.565 149.767 133.899 152.314C134.601 152.314 135.638 152.666 136.306 152.384C136.885 152.138 137.254 151.383 137.641 150.909C138.625 149.731 139.661 148.642 140.751 147.57C143.158 145.234 146.092 143.108 149.184 141.772C150.168 141.351 152.031 139.857 153.137 140.068C154.069 140.244 155.281 142.458 155.861 143.178C158.197 146.094 160.429 149.679 163.24 152.138V152.314L147.954 163.91C148.288 165.333 149.588 166.493 150.484 167.6C151.609 168.97 152.821 170.235 154.104 171.465C154.49 171.834 155.088 172.519 155.667 172.502C156.177 172.484 156.599 171.817 156.897 171.483C157.811 170.464 158.725 169.445 159.708 168.496C162.713 165.632 166.508 161.767 170.602 160.589C169.635 158.411 167.492 156.478 165.998 154.616L156.124 142.317L151.029 135.992C150.203 134.973 149.395 133.567 148.358 132.759C147.708 132.267 146.742 132.513 146.004 132.654C143.58 133.128 138.836 136.572 137.571 133.181C136.2 129.456 141.664 129.544 143.72 128.261C138.801 124.554 134.162 120.302 129.489 116.296C127.767 114.82 125.377 111.939 123.164 111.324C121.758 110.938 119.843 111.183 118.42 111.342C112.956 111.974 108.879 114.522 104.54 117.878Z" fill="#78B5EE"/>
<path d="M75.5497 111.377L75.7257 111.553L75.5497 111.377Z" fill="#637A9E"/>
<path d="M82.929 111.728L83.105 111.904L82.929 111.728Z" fill="#647CA0"/>
<path d="M76.7795 112.607L76.9556 112.783L76.7795 112.607Z" fill="#5E7498"/>
<path d="M80.6449 112.607L80.8209 112.783L80.6449 112.607Z" fill="#62799D"/>
<path d="M106.121 112.607V113.661H106.297L106.121 112.607Z" fill="#932B41"/>
<path d="M23.7191 112.782L23.8952 112.958L23.7191 112.782Z" fill="#868071"/>
<path d="M319.593 112.958L319.417 114.188H320.12L319.944 112.958H319.593Z" fill="white"/>
<path d="M24.0706 113.836L24.2466 114.012L24.0706 113.836Z" fill="#8F8875"/>
<path d="M97.5117 114.188V114.364H98.0388L97.5117 114.188Z" fill="#486D9C"/>
<path d="M78.3608 114.364L78.5369 114.54L78.3608 114.364Z" fill="#637B9F"/>
<path d="M97.2833 114.768L97.4062 114.821L97.2833 114.768Z" fill="#35527D"/>
<path d="M68.5219 127.189C70.4018 126.223 71.4911 124.185 73.4414 123.201C75.9714 121.918 78.8353 121.251 81.5234 120.39C88.1999 118.229 94.8588 116.683 101.904 116.12C100.604 113.907 95.017 115.576 92.9437 115.98C87.1457 117.14 81.6464 118.932 76.0768 120.864C73.1251 121.901 69.5409 124.009 68.5219 127.189Z" fill="#DC3644"/>
<path d="M24.5975 115.242L24.7736 115.418L24.5975 115.242Z" fill="#8E8774"/>
<path d="M117.19 117.175C116.505 114.873 112.481 114.364 111.515 116.824C110.566 119.283 112.92 120.425 114.73 119.037C115.538 118.405 116.311 117.72 117.19 117.175Z" fill="#10183C"/>
<path d="M71.8601 115.594L72.0362 115.77L71.8601 115.594Z" fill="#6881A4"/>
<path d="M72.9143 116.472L73.0909 116.649L72.9143 116.472Z" fill="#657DA1"/>
<path d="M82.929 120.864C88.1472 122.569 93.5235 123.658 98.9174 124.624C102.185 125.222 105.418 125.96 108.756 125.96C108.633 125.046 108.792 123.834 108.475 122.973C107.896 121.427 105.875 120.056 104.715 118.932C103.995 118.229 103.099 116.929 102.062 116.7C101.061 116.49 99.7432 116.999 98.7417 117.122C96.3346 117.421 93.9452 117.755 91.5381 118.141C89.377 118.493 87.2687 118.809 85.213 119.582C84.3697 119.916 83.4385 120.074 82.929 120.864Z" fill="#B5DBFF"/>
<path d="M100.094 116.876L100.217 116.929L100.094 116.876Z" fill="#7F9ABF"/>
<path d="M73.6169 116.999L73.793 117.175L73.6169 116.999Z" fill="#5F7599"/>
<path d="M98.8646 117.052L98.9875 117.104L98.8646 117.052Z" fill="#7E99BD"/>
<path d="M102.607 116.999L102.783 117.175L102.607 116.999Z" fill="#6881A4"/>
<path d="M111.216 117.175V117.878H111.392L111.216 117.175Z" fill="#2B416A"/>
<path d="M24.949 117.702C25.3004 119.705 26.5127 121.585 27.5142 123.324C30.0266 127.717 33.2419 131.793 36.7207 135.447C48.4397 147.764 62.7063 158.551 78.3609 165.386C83.6318 167.688 88.9203 169.901 94.525 171.307C95.8603 171.641 99.0053 172.959 100.288 172.326C101.043 171.957 101.412 170.762 101.764 170.06C102.73 168.18 103.89 166.405 104.698 164.437C99.1458 164.42 93.3654 162.434 88.1823 160.625C76.1647 156.443 64.6565 150.259 54.2728 142.914C51.1278 140.701 48.0707 138.364 45.1366 135.887C43.6431 134.622 42.1673 132.742 40.3927 131.916C43.0633 135.711 47.3328 139.014 50.9346 141.895C59.737 148.941 69.6111 154.879 80.1003 159.079C84.8265 160.976 89.6055 162.628 94.5074 163.998C95.5616 164.297 98.8998 164.56 99.3039 165.685C99.4621 166.142 99.2512 166.792 99.1107 167.231C98.2498 170.13 95.9306 169.304 93.4532 168.882C86.847 167.776 80.4868 165.175 74.478 162.259C60.0884 155.283 46.7178 144.988 36.0355 133.146C33.154 129.948 30.5361 126.539 28.1642 122.955C27.0925 121.356 26.3194 119.055 24.949 117.702Z" fill="#3778C9"/>
<path d="M74.6713 117.702L74.8473 117.878L74.6713 117.702Z" fill="#637A9E"/>
<path d="M117.19 117.86C116.346 118.036 115.327 118.949 114.853 119.635C114.554 120.074 114.238 120.987 115.099 120.917C116.083 120.829 117.365 119.898 117.875 119.09C118.262 118.457 118.068 117.684 117.19 117.86Z" fill="#10183C"/>
<path d="M117.541 117.702V117.878H118.068L117.541 117.702Z" fill="#3D5D8A"/>
<path d="M75.374 118.053L75.5501 118.229L75.374 118.053Z" fill="#667EA2"/>
<path d="M91.4854 118.106L91.6082 118.159L91.4854 118.106Z" fill="#748DB1"/>
<path d="M115.96 122.27C117.172 122.217 118.385 121.813 119.281 120.987C119.632 120.671 120.142 120.039 119.72 119.564C118.666 118.44 116.065 121.286 115.96 122.27Z" fill="#10183C"/>
<path d="M26.7059 119.635L26.882 119.811L26.7059 119.635Z" fill="#868071"/>
<path d="M105.418 119.635L105.594 119.811L105.418 119.635Z" fill="#5F7599"/>
<path d="M24.7732 119.81C25.0192 121.444 25.8625 123.166 26.4599 124.73C28.3047 129.632 30.9402 134.182 33.9621 138.434C45.1189 154.089 62.2318 166.159 80.1177 172.976C84.6507 174.698 89.2716 176.156 93.9978 177.193C96.317 177.702 99.1809 177.667 101.377 178.493C103.626 179.336 105.787 180.988 107.878 182.183C116.487 187.137 125.114 192.039 133.705 197.012C135.339 197.96 136.991 198.909 138.625 199.858C139.205 200.192 140.03 200.877 140.716 200.859C141.594 200.842 142.42 199.419 142.666 198.698C133.653 193.902 125.061 188.104 116.311 182.85C113.114 180.935 109.881 178.493 106.472 176.982C104.786 176.227 102.343 176.42 100.499 176.068C96.3873 175.278 92.3462 174.224 88.3755 172.871C74.8117 168.25 62.0912 160.783 50.952 151.822C43.6255 145.919 36.8084 139.137 31.397 131.406C29.7454 129.052 28.2344 126.575 26.9167 124.027C26.2139 122.657 25.7747 121.005 24.7732 119.81Z" fill="#4D5786"/>
<path d="M120.177 120.829C119.439 121.093 118.437 121.76 118.033 122.446C117.471 123.359 118.42 123.57 119.122 123.324C119.913 123.043 120.844 122.463 121.301 121.743C121.828 120.882 120.862 120.583 120.177 120.829Z" fill="#10183C"/>
<path d="M106.648 120.865L106.824 121.041L106.648 120.865Z" fill="#677FA3"/>
<path d="M322.228 121.216C322.123 121.813 322.158 122.077 322.755 122.27V121.216H322.228Z" fill="white"/>
<path d="M82.5776 121.392L79.9421 126.135C84.8089 128.015 89.7987 129.316 94.8764 130.475C97.6524 131.108 101.149 131.916 104.013 131.565C106.103 131.301 107.737 129.07 109.986 128.613C108.563 125.925 105.559 126.399 102.783 125.907C97.8281 125.011 92.9261 124.009 88.0242 122.92C86.197 122.498 84.4224 121.673 82.5776 121.392Z" fill="#78B5EE"/>
<path d="M121.758 124.554L120.88 126.135C122.039 126.118 123.533 125.872 124.27 124.853C125.131 123.658 123.585 123.5 122.83 123.939L121.758 124.554C122.566 123.728 123.585 121.093 121.407 122.27C120.88 122.551 118.244 124.66 119.843 125.116C120.44 125.292 121.231 124.765 121.758 124.554Z" fill="#10183C"/>
<path d="M175.521 122.973C174.52 123.763 172.359 124.782 171.867 125.977C171.568 126.733 172.288 127.892 172.534 128.595C173.36 131.002 173.993 133.55 175.521 135.623L177.63 135.447C179.176 133.163 181.302 130.826 183.603 129.298V128.946L175.521 122.973Z" fill="#3778C9"/>
<path d="M67.4677 123.5V123.676H68.5218L67.4677 123.5Z" fill="#285290"/>
<path d="M161.114 133.515L165.858 130.58L167.228 129.105L163.398 124.203L159.006 127.26L157.811 128.771L161.114 133.515Z" fill="#10183C"/>
<path d="M121.881 124.431L122.004 124.484L121.881 124.431Z" fill="#4F76A7"/>
<path d="M125.219 124.783L125.342 124.835L125.219 124.783Z" fill="#35507C"/>
<path d="M30.0442 124.905L30.2203 125.081L30.0442 124.905Z" fill="#928977"/>
<path d="M124.921 125.028C123.532 125.433 121.354 128.349 124.042 127.576C124.727 127.383 125.623 126.944 125.975 126.294C126.379 125.503 125.746 124.783 124.921 125.028Z" fill="#10183C"/>
<path d="M34.0852 125.081L34.2613 125.257L34.0852 125.081Z" fill="#8C8574"/>
<path d="M317.836 125.608V126.135H318.539V125.608H317.836Z" fill="white"/>
<path d="M106.244 125.837L106.367 125.889L106.244 125.837Z" fill="#6A81A6"/>
<path d="M321.877 125.784V126.662H322.404V125.784H321.877Z" fill="white"/>
<path d="M107.702 125.96V126.135H108.756L107.702 125.96Z" fill="#405075"/>
<path d="M30.9226 126.135L31.0987 126.311L30.9226 126.135Z" fill="#817B6F"/>
<path d="M109.336 126.258L109.389 126.381L109.336 126.258Z" fill="#40618F"/>
<path d="M105.893 126.364L106.015 126.416L105.893 126.364Z" fill="#4D74A4"/>
<path d="M69.049 129.825C70.0504 131.125 71.8601 131.898 73.2657 132.707C76.4634 134.534 79.8016 136.115 83.1047 137.767C92.2761 142.352 102.906 147.184 113.149 148.572C118.929 149.345 124.762 148.906 130.543 148.449C129.454 147.202 127.292 144.759 125.623 144.443C123.462 144.057 120.124 145.269 118.244 144.021C113.395 140.859 110.303 135.131 105.067 132.355C104.311 131.951 103.415 132.144 102.607 132.057C100.305 131.793 98.039 131.67 95.7549 131.196C91.8368 130.352 88.0067 129.298 84.1589 128.174C82.7885 127.77 81.1896 126.733 79.7665 126.68C78.8528 126.645 77.6581 127.242 76.7796 127.488C74.1969 128.226 71.6668 129.281 69.049 129.825Z" fill="#78B5EE"/>
<path d="M107.527 126.487V126.662H108.932L107.527 126.487Z" fill="#3B5986"/>
<path d="M127.907 126.838C127.082 126.68 123.62 127.435 124.411 128.876C125.237 130.352 127.767 127.752 127.907 126.838Z" fill="#10183C"/>
<path d="M31.4497 126.838L31.6258 127.014L31.4497 126.838Z" fill="#888172"/>
<path d="M35.6665 127.189L35.8426 127.366L35.6665 127.189Z" fill="#79756C"/>
<path d="M79.6084 127.717C78.3082 128.455 79.8016 130.212 80.9612 129.579C82.279 128.876 80.768 127.049 79.6084 127.717ZM125.799 130.528C126.326 130.528 126.871 130.563 127.38 130.44C128.083 130.282 130.279 128.894 128.909 128.121C127.697 127.418 125.869 129.491 125.799 130.528Z" fill="#10183C"/>
<path d="M32.6797 128.419L32.8557 128.595L32.6797 128.419Z" fill="#908975"/>
<path d="M81.5762 128.718L81.6288 128.841L81.5762 128.718Z" fill="#3C5A87"/>
<path d="M147.41 131.758C145.881 128.736 143.281 128.788 140.558 129.86C139.908 130.124 138.695 130.405 138.274 130.985C137.5 132.074 138.274 134.569 139.855 134.27C141.12 134.024 142.332 133.146 143.544 132.706C144.792 132.25 146.145 132.179 147.41 131.758Z" fill="#3778C9"/>
<path d="M158.479 128.771L161.29 132.812L166.385 129.649V129.474L158.479 128.771Z" fill="#4D5786"/>
<path d="M76.0768 128.947V129.122H76.9553L76.0768 128.947Z" fill="#2B4169"/>
<path d="M75.7781 129.298C74.6185 130.071 76.2349 131.494 77.2715 130.861C78.6595 130.018 76.9201 128.542 75.7781 129.298Z" fill="#10183C"/>
<path d="M125.448 143.705C123.146 140.437 119.579 137.626 116.663 134.903C114.748 133.128 112.92 130.774 110.689 129.403C109.459 128.648 106.015 130.211 105.646 131.582C105.488 132.197 106.244 132.654 106.648 132.952C107.843 133.866 109.02 134.815 110.162 135.816C112.147 137.573 114.08 139.365 115.96 141.228C116.751 142.018 117.682 143.354 118.771 143.758C120.616 144.46 123.497 143.705 125.448 143.705Z" fill="#78B5EE"/>
<path d="M153.331 129.175L153.454 129.228L153.331 129.175Z" fill="#5077A8"/>
<path d="M33.3824 129.298L33.5585 129.474L33.3824 129.298Z" fill="#898273"/>
<path d="M130.192 129.421C129.19 129.614 126.888 131.969 128.962 131.688C129.664 131.6 130.666 131.178 131.105 130.598C131.685 129.895 130.929 129.281 130.192 129.421Z" fill="#10183C"/>
<path d="M177.454 137.029C178.965 136.326 180.476 134.481 181.442 133.128C182.25 132.004 183.076 130.58 184.658 130.879C184.974 128.911 183.076 130.194 182.373 130.879C180.564 132.636 178.174 134.516 177.454 137.029Z" fill="#4D5786"/>
<path d="M85.3888 130.176C84.7036 131.793 83.79 133.602 85.5821 134.99C86.4606 135.658 90.5895 136.361 91.0639 134.867C91.4328 133.725 88.7622 132.074 88.0243 131.494C87.1985 130.844 86.443 130.247 85.3888 130.176Z" fill="#10183C"/>
<path d="M147.937 131.23V131.406C155.72 141.052 164.013 150.487 171.34 160.502C172.517 162.118 170.004 163.348 169.793 164.789C169.653 165.685 171.568 167.371 172.218 167.898C172.798 168.373 173.606 168.197 174.291 168.355C175.205 168.566 176.013 169.076 176.751 169.655C177.173 169.989 177.577 170.639 178.174 170.534C179.914 170.253 181.618 168.865 183.445 168.496C179.035 161.433 172.851 155.002 167.316 148.818C164.189 145.339 161.624 141.474 158.32 138.1C156.247 135.974 154.104 134.042 151.82 132.144C150.379 130.932 149.536 129.684 147.937 131.23Z" fill="#78B5EE"/>
<path d="M34.2609 130.352L34.4369 130.528L34.2609 130.352Z" fill="#908975"/>
<path d="M133.354 152.314C133.178 150.891 132.511 149.292 130.894 149.011C128.926 148.677 126.555 149.345 124.569 149.486C120.598 149.767 116.188 149.837 112.27 148.941C101.922 146.534 91.9071 142.739 82.4019 137.977C79.1691 136.361 75.8484 134.815 72.7386 132.952C71.6668 132.32 69.7517 130.545 68.5218 130.493C67.5204 130.458 66.4486 132.285 65.904 132.988C64.2173 135.201 60.6506 138.346 63.0928 140.876C65.0079 142.844 67.7312 144.021 70.0855 145.357C75.7254 148.554 81.4531 151.242 87.4795 153.65C94.0682 156.285 100.692 158.042 107.685 159.202C108.528 159.342 109.986 159.887 110.812 159.571C111.568 159.289 112.042 158.024 112.639 157.48C113.746 156.478 115.275 155.758 116.645 155.196C121.846 153.105 127.802 152.314 133.354 152.314Z" fill="#3778C9"/>
<path d="M91.8895 130.668C88.9905 131.108 91.011 134.077 92.9437 133.813C95.3332 133.479 93.5586 130.405 91.8895 130.668Z" fill="#10183C"/>
<path d="M137.395 130.879V132.988H137.571L137.395 130.879Z" fill="#253860"/>
<path d="M168.845 130.879V131.055H169.372L168.845 130.879Z" fill="#395783"/>
<path d="M76.2524 131.055V131.231H76.9552L76.2524 131.055Z" fill="#3C5A88"/>
<path d="M131.773 131.16C130.648 131.476 128.997 133.515 131.07 132.987C132.335 132.671 133.969 130.563 131.773 131.16Z" fill="#10183C"/>
<path d="M137.922 131.055V132.461H138.098L137.922 131.055Z" fill="#21447D"/>
<path d="M168.335 131.178C166.877 131.81 168.142 134.112 169.547 133.444C171.287 132.636 170.004 130.475 168.335 131.178Z" fill="#10183C"/>
<path d="M39.0047 131.23L39.1804 131.406L39.0047 131.23ZM35.3151 131.582L35.4908 131.758L35.3151 131.582Z" fill="#888172"/>
<path d="M99.7959 131.758V131.934H100.323L99.7959 131.758Z" fill="#486D9C"/>
<path d="M170.426 131.933V132.46H170.602L170.426 131.933Z" fill="#527BAB"/>
<path d="M84.3346 132.109V132.812H84.5103L84.3346 132.109Z" fill="#5987BA"/>
<path d="M133.003 134.393C132.581 134.832 132.001 135.307 132.019 135.974C132.071 137.626 135.41 138.188 136.446 137.275C138.063 135.869 136.499 132.091 134.408 133.339C134.303 130.159 128.997 135.518 133.003 134.393Z" fill="#10183C"/>
<path d="M147.41 132.285V132.46H148.113L147.41 132.285Z" fill="#314A75"/>
<path d="M134.461 132.759L134.514 132.882L134.461 132.759Z" fill="#3D5D8A"/>
<path d="M272.857 145.286C274.017 144.531 274.878 142.791 275.844 141.772C278.304 139.172 282.398 136.238 283.926 132.988C282.732 133.339 281.8 134.762 280.939 135.623C278.937 137.626 277.004 139.682 275.106 141.772C274.14 142.844 273.016 143.758 272.857 145.286Z" fill="white"/>
<path d="M36.7207 133.163L36.8968 133.339L36.7207 133.163Z" fill="#817B6F"/>
<path d="M40.7617 133.163L40.9378 133.339L40.7617 133.163Z" fill="#898273"/>
<path d="M163.75 133.462C162.01 134.165 163.346 136.607 164.962 135.992C166.947 135.236 165.577 132.724 163.75 133.462Z" fill="#10183C"/>
<path d="M173.589 133.69C171.199 135.588 168.757 137.45 166.209 139.137C164.892 139.998 163.433 141.035 161.817 141.07L163.047 142.651C166.192 141.456 169.249 138.487 172.007 136.554C173.009 135.851 174.748 135.026 173.589 133.69Z" fill="#3778C9"/>
<path d="M176.224 135.096V135.272H176.927L176.224 135.096Z" fill="#21437C"/>
<path d="M174.467 135.271L163.574 143.002L163.925 143.705H164.277C166.403 140.982 167.422 142.791 168.669 144.935C170.637 143.301 172.552 140.086 173.922 137.907C174.45 137.064 175.31 136.115 174.467 135.271Z" fill="#3778C9"/>
<path d="M87.6729 135.623V135.799H88.9027L87.6729 135.623Z" fill="#5F8FC2"/>
<path d="M174.291 138.61C175.539 138.136 176.54 137.081 176.927 135.799C175.556 135.904 174.537 137.327 174.291 138.61Z" fill="#4D5786"/>
<path d="M39.5319 136.15L39.7079 136.326L39.5319 136.15Z" fill="#7F796E"/>
<path d="M39.7075 136.326L39.8836 136.502L39.7075 136.326Z" fill="#878071"/>
<path d="M39.8832 136.501L40.0592 136.678L39.8832 136.501Z" fill="#8D8674"/>
<path d="M40.2346 136.853L40.4107 137.029L40.2346 136.853Z" fill="#948B77"/>
<path d="M40.4104 137.029L40.5865 137.205L40.4104 137.029Z" fill="#928977"/>
<path d="M53.939 142.124C64.9552 149.608 76.4985 155.986 89.0784 160.449C92.5396 161.679 96.1765 162.663 99.7959 163.313C101.447 163.611 103.749 163.453 105.242 164.174C108.019 165.491 110.267 168.092 112.973 169.638C122.812 175.278 132.634 180.935 142.49 186.558C145.073 188.033 147.656 189.474 150.221 190.985C151.732 191.864 153.296 193.093 154.965 193.621L157.952 189.228L157.073 189.052C156.581 190.177 153.577 193.902 152.329 191.653C151.714 190.528 154.789 188.508 155.668 188.174V187.998C143.843 181.779 132.353 174.593 120.88 167.758C118.314 166.229 115.732 164.736 113.149 163.26C111.708 162.434 110.408 162.065 110.689 160.238C107.597 159.658 104.434 159.377 101.377 158.674C91.3097 156.355 80.7328 152.279 71.8601 146.955C69.1016 145.304 65.7985 143.969 63.4266 141.772C62.7765 141.175 61.4939 140.244 61.3182 139.33C61.1777 138.592 62.0386 137.661 62.3724 137.046C59.3329 137.749 55.0986 139.137 53.939 142.124Z" fill="#3778C9"/>
<path d="M44.8027 137.204L44.9788 137.38L44.8027 137.204Z" fill="#837D6F"/>
<path d="M40.7617 137.38L40.9378 137.556L40.7617 137.38Z" fill="#928977"/>
<path d="M40.9374 137.556L41.1134 137.732L40.9374 137.556Z" fill="#8B8473"/>
<path d="M41.113 137.731L41.2891 137.908L41.113 137.731Z" fill="#938A76"/>
<path d="M41.2888 137.907L41.4649 138.083L41.2888 137.907Z" fill="#817B6F"/>
<path d="M46.9111 139.137L47.0872 139.313L46.9111 139.137Z" fill="#8C8574"/>
<path d="M238.702 139.524C238.315 139.77 238.579 140.63 239.036 140.349C239.405 140.086 239.141 139.225 238.702 139.524Z" fill="white"/>
<path d="M149.87 141.948C152.312 146.34 156.634 149.521 161.465 150.909L153.208 140.542L149.87 141.948Z" fill="#3778C9"/>
<path d="M44.4513 140.894L44.6274 141.07L44.4513 140.894Z" fill="#857F70"/>
<path d="M219.797 189.913C221.044 189.931 222.169 187.963 222.959 187.102C225.56 184.256 228.195 181.392 230.743 178.493C238.983 169.146 248.049 160.554 256.535 151.436C258.679 149.134 260.84 146.85 263.018 144.584C263.967 143.6 265.461 142.387 265.829 141.07C264.09 141.878 262.72 144.074 261.419 145.462C258.292 148.818 255.13 152.156 251.932 155.477C244.096 163.647 236.119 171.658 228.547 180.074C225.665 183.29 222.274 186.364 219.797 189.913Z" fill="white"/>
<path d="M49.3708 141.245L49.5469 141.421L49.3708 141.245Z" fill="#827C6F"/>
<path d="M170.25 151.084C169.916 148.888 168.827 146.604 167.914 144.584C167.615 143.916 167.299 142.686 166.385 142.739C165.19 142.791 164.417 144.109 165.032 145.111C166.297 147.219 168.23 149.661 170.25 151.084Z" fill="#4D5786"/>
<path d="M51.3035 142.827L51.4795 143.003L51.3035 142.827Z" fill="#928977"/>
<path d="M47.4381 143.529L47.6142 143.705L47.4381 143.529Z" fill="#908975"/>
<path d="M122.285 143.705V143.881H125.623L122.285 143.705Z" fill="#486D9D"/>
<path d="M52.8848 144.056L53.0608 144.232L52.8848 144.056Z" fill="#908975"/>
<path d="M48.668 144.583L48.844 144.76L48.668 144.583Z" fill="#79756C"/>
<path d="M53.5875 144.583L53.7636 144.76L53.5875 144.583Z" fill="#827C6E"/>
<path d="M54.2903 145.111L54.4663 145.287L54.2903 145.111Z" fill="#7A766B"/>
<path d="M238.596 145.638L239.299 146.34V145.638H238.596Z" fill="white"/>
<path d="M50.6007 146.165L50.7768 146.341L50.6007 146.165Z" fill="#847E70"/>
<path d="M169.372 146.692L169.723 147.922C171.182 147.852 172.517 147.061 173.764 146.341C172.622 145.866 170.567 146.411 169.372 146.692Z" fill="#4D5786"/>
<path d="M51.4792 146.868L51.6553 147.044L51.4792 146.868Z" fill="#918A76"/>
<path d="M232.798 146.868C232.904 147.483 233.062 147.641 233.677 147.746C233.572 147.131 233.413 146.973 232.798 146.868Z" fill="white"/>
<path d="M146.356 161.802C149.483 157.058 155.193 153.439 160.236 151.084C158.918 149.995 157.02 149.345 155.492 148.589C154.912 148.291 154.244 147.834 153.559 147.922C152.575 148.045 151.591 148.835 150.748 149.327C148.64 150.575 146.461 151.875 144.827 153.72C144.265 154.37 143.175 155.266 143.105 156.179C143 157.69 145.249 160.888 146.356 161.802Z" fill="#78B5EE"/>
<path d="M114.326 148.677L114.449 148.73L114.326 148.677Z" fill="#3A5985"/>
<path d="M116.259 148.853L116.382 148.906L116.259 148.853Z" fill="#446695"/>
<path d="M120.352 148.976V149.152H121.231L120.352 148.976Z" fill="#4F75A6"/>
<path d="M122.109 148.976V149.152H122.812L122.109 148.976Z" fill="#36517D"/>
<path d="M105.787 149.608C104.979 149.854 104.838 150.733 104.61 151.436C104.1 152.947 102.607 158.042 106.138 156.882C108.774 156.004 109.934 148.308 105.787 149.608Z" fill="#10183C"/>
<path d="M119.474 149.503V149.679H122.988L119.474 149.503Z" fill="#1B3365"/>
<path d="M61.4939 150.03L61.6699 150.206L61.4939 150.03Z" fill="#8E8774"/>
<path d="M56.5745 150.733L56.7505 150.909L56.5745 150.733Z" fill="#868071"/>
<path d="M147.234 163.559C148.974 163.155 150.572 161.38 151.978 160.326C155.509 157.673 158.936 154.879 162.52 152.314C161.184 150.961 159.586 151.805 158.127 152.543C154.789 154.212 151.908 156.812 149.167 159.289C147.796 160.537 146.233 161.714 147.234 163.559Z" fill="#DC3644"/>
<path d="M57.8043 151.611L57.9804 151.787L57.8043 151.611Z" fill="#7D786D"/>
<path d="M158.303 188.859L164.101 182.183C160.236 177.14 154.807 173.257 150.625 168.478C148.306 165.808 146.162 162.909 144.353 159.869C143.175 157.884 142.244 155.301 140.206 154.019C136.991 151.998 131.123 152.683 127.556 153.175C123.322 153.755 118.929 154.563 115.082 156.496C113.412 157.339 111.322 158.833 111.163 160.923C111.076 161.943 112.973 162.575 113.676 162.997C116.417 164.631 119.193 166.177 121.934 167.811C130.139 172.695 138.449 177.457 146.707 182.253C150.344 184.361 154.297 187.594 158.303 188.859Z" fill="#78B5EE"/>
<path d="M60.0884 153.193L60.2649 153.369L60.0884 153.193Z" fill="#7F796E"/>
<path d="M126.625 153.246L126.748 153.298L126.625 153.246Z" fill="#436593"/>
<path d="M60.6155 153.544L60.7915 153.72L60.6155 153.544Z" fill="#8C8574"/>
<path d="M67.4677 153.544L67.6437 153.72L67.4677 153.544Z" fill="#837D6F"/>
<path d="M4.91943 168.127C6.2723 167.494 7.39676 166.159 8.60907 165.263C11.877 162.856 15.0572 160.343 18.2724 157.866C19.8361 156.654 22.5418 155.424 23.5433 153.702C21.8918 154.089 20.3105 155.635 18.9752 156.619C15.7775 158.991 12.6852 161.521 9.48756 163.91C7.97656 165.07 5.63979 166.3 4.91943 168.127Z" fill="white"/>
<path d="M61.1426 153.896L61.3191 154.072L61.1426 153.896Z" fill="#827C6E"/>
<path d="M61.6697 154.247L61.8457 154.423L61.6697 154.247Z" fill="#807A6E"/>
<path d="M69.7517 154.774L69.9278 154.95L69.7517 154.774Z" fill="#898273"/>
<path d="M266.181 155.828C262.808 161.872 257.414 167.055 252.986 172.344C251.194 174.487 248.225 177.035 247.733 179.899L249.437 177.615L252.529 173.749L262.649 161.626L266.708 155.828H266.181Z" fill="white"/>
<path d="M142.894 156.127L142.947 156.25L142.894 156.127Z" fill="#3E5F8B"/>
<path d="M67.6433 157.937L67.8194 158.113L67.6433 157.937Z" fill="#938A76"/>
<path d="M0 186.048L2.98685 184.185L8.78485 179.635L26.7059 165.649L32.5039 161.187L35.3151 158.481L32.6796 160.343L27.7601 164.121L8.60915 179.073L2.98685 183.518L0 186.048Z" fill="white"/>
<path d="M77.8337 158.639L78.0094 158.815L77.8337 158.639ZM79.0636 159.166L79.2393 159.342L79.0636 159.166Z" fill="#878071"/>
<path d="M73.09 160.923L73.266 161.099L73.09 160.923Z" fill="#868071"/>
<path d="M73.4414 161.099L73.6175 161.275L73.4414 161.099Z" fill="#928977"/>
<path d="M110.918 161.222L110.97 161.345L110.918 161.222Z" fill="#385480"/>
<path d="M75.5497 162.153L75.7262 162.33L75.5497 162.153Z" fill="#8C8574"/>
<path d="M156.019 173.046V173.222C158.092 175.295 160.095 177.474 162.168 179.547C162.608 179.987 163.837 181.691 164.558 181.427C164.997 181.269 164.681 180.689 164.54 180.426C163.732 179.02 163.24 177.79 163.996 176.209C165.436 173.205 169.231 170.376 172.007 168.654L167.264 163.032C162.889 164.718 159.164 169.761 156.019 173.046Z" fill="#78B5EE"/>
<path d="M90.6597 163.383L90.8357 163.559L90.6597 163.383Z" fill="#7F796E"/>
<path d="M203.457 163.734V165.14H204.16V163.734H203.457Z" fill="white"/>
<path d="M79.415 163.91L79.5911 164.086L79.415 163.91Z" fill="#7E786D"/>
<path d="M92.4166 163.91L92.5927 164.086L92.4166 163.91Z" fill="#817B6F"/>
<path d="M93.6465 164.262L93.8226 164.438L93.6465 164.262Z" fill="#837D6F"/>
<path d="M105.067 164.789L101.026 172.695C102.484 172.765 104.751 173.556 106.121 172.871C107.052 172.396 109.74 169.462 109.494 168.338C109.213 167.055 106.244 165.158 105.067 164.789Z" fill="#3778C9"/>
<path d="M85.9158 166.37L86.0919 166.546L85.9158 166.37Z" fill="#908975"/>
<path d="M86.4429 166.546L86.6189 166.722L86.4429 166.546Z" fill="#7F796E"/>
<path d="M173.062 168.127V168.303H173.764L173.062 168.127Z" fill="#2B416B"/>
<path d="M98.0389 168.478L98.2155 168.655L98.0389 168.478Z" fill="#908975"/>
<path d="M96.282 168.654V168.83H97.1605L96.282 168.654Z" fill="#CBBD90"/>
<path d="M177.278 171.114C176.611 169.48 174.239 168.373 172.534 168.953C171.568 169.286 170.69 170.13 169.899 170.762C168.001 172.273 165.594 173.96 164.523 176.209C164.119 177.07 163.82 180.83 165.682 180.373C166.789 180.092 167.984 178.3 168.845 177.544C169.899 176.631 170.936 175.735 172.007 174.856C173.676 173.486 175.486 172.308 177.278 171.114ZM155.316 204.145C155.597 200.683 158.039 197.24 159.99 194.481C164.189 188.543 168.968 183.114 174.291 178.159C176.435 176.174 180.546 171.957 183.779 172.695V169.005C180.195 169.304 176.716 171.869 173.94 173.942C167.387 178.844 161.395 184.888 156.774 191.67C154.578 194.903 149.219 202.388 155.316 204.145Z" fill="#78B5EE"/>
<path d="M106.824 173.398C110.232 174.997 113.412 177.281 116.663 179.196C123.48 183.202 130.279 187.225 137.044 191.284C138.976 192.443 140.909 193.568 142.842 194.727C143.439 195.079 144.405 195.94 145.126 195.869C146.215 195.764 148.025 193.164 148.288 192.197C144.932 190.792 141.77 188.543 138.625 186.716C131.773 182.78 124.938 178.827 118.068 174.926C116.013 173.749 113.975 172.572 111.919 171.395C111.286 171.043 110.232 170.13 109.459 170.235C108.405 170.393 107.175 172.484 106.824 173.398Z" fill="#4D5786"/>
<path d="M156.019 204.672L159.463 203.302L162.52 204.145C165.12 196.467 171.129 189.896 176.751 184.291C178.93 182.112 182.11 178.95 185.36 178.669C184.833 177.685 183.867 176.613 183.656 175.506C183.515 174.821 184.13 173.503 183.234 173.152C182.461 172.853 181.267 173.538 180.634 173.89C178.455 175.12 176.54 176.789 174.66 178.423C168.792 183.518 163.644 189.738 159.375 196.221C157.846 198.523 155.509 201.791 156.019 204.672Z" fill="#3778C9"/>
<path d="M159.533 202.388C160.411 202.089 160.587 201.035 160.991 200.28C161.834 198.716 162.818 197.187 163.802 195.711C167.457 190.23 171.48 185.205 176.4 180.812C177.911 179.459 179.492 178.212 181.144 177.07C181.864 176.56 182.953 176.209 183.252 175.331C180.581 175.805 177.823 178.651 175.873 180.391C170.988 184.748 167.018 189.738 163.398 195.184C161.975 197.31 159.972 199.823 159.533 202.388Z" fill="#10183C"/>
<path d="M39.8831 177.088V175.506C38.5829 175.647 38.7411 176.754 39.8831 177.088ZM46.911 177.79L47.0867 179.02H47.4381V177.79H46.911ZM208.025 178.493L208.904 179.547C209.027 178.827 208.71 178.599 208.025 178.493Z" fill="white"/>
<path d="M162.871 204.672L168.142 206.253C168.476 204.004 170.303 201.896 171.586 200.104C174.748 195.676 178.35 191.477 182.198 187.629C183.832 185.995 185.694 183.729 187.996 183.061C187.504 181.884 186.678 179.741 185.36 179.301C184.587 179.055 183.568 179.635 182.901 180.004C181.021 181.041 179.422 182.446 177.805 183.852C171.674 189.176 165.401 196.871 162.871 204.672Z" fill="#78B5EE"/>
<path d="M265.478 179.372C265.619 180.197 266.128 180.232 266.884 180.25V179.547L265.478 179.372ZM57.8043 180.426H59.0342C58.7707 179.653 58.0679 179.653 57.8043 180.426Z" fill="white"/>
<path d="M168.669 206.078C171.129 205.498 173.677 202.476 175.275 200.631C178.385 197.047 181.6 193.603 184.376 189.738C185.747 187.84 187.328 185.872 187.996 183.588C185.677 184.274 183.656 186.646 182.022 188.332C178.649 191.776 175.539 195.553 172.64 199.401C171.147 201.404 169.337 203.618 168.669 206.078Z" fill="#4D5786"/>
<path d="M41.113 183.94V184.643L42.1672 184.467V184.115L41.113 183.94ZM47.4381 184.467C47.5436 185.082 47.6841 185.275 48.3166 185.17L47.4381 184.467Z" fill="white"/>
<path d="M156.897 188.859V189.386H157.073L157.249 188.859H156.897Z" fill="#264E8B"/>
<path d="M253.004 188.859C253.092 189.702 253.373 190.124 254.234 190.265L253.706 188.859H253.004Z" fill="white"/>
<path d="M149.342 192.198L152.856 193.954C150.976 197.591 146.145 199.559 144.423 203.266L146.883 204.496L151.328 197.996L154.613 194.13C153.559 193.48 150.168 190.704 149.342 192.198Z" fill="#444E7B"/>
<path d="M109.986 192.022V194.481C110.988 194.148 110.689 192.9 110.689 192.022H109.986Z" fill="white"/>
<path d="M148.991 192.549C144.774 197.135 140.839 201.949 136.692 206.605C135.129 208.379 132.054 210.821 131.421 213.105C132.071 213.193 132.88 213.562 133.53 213.351C135.023 212.859 136.481 210.523 137.571 209.416C140.733 206.253 143.72 202.915 146.883 199.752C148.534 198.101 150.976 196.274 151.978 194.13L148.991 192.549Z" fill="#3778C9"/>
<path d="M51.3035 192.725V193.427H52.5333V192.9L51.3035 192.725ZM106.121 196.414V196.766L108.756 196.941C108.423 195.922 106.982 196.168 106.121 196.414ZM110.865 196.941V197.293L113.324 197.82V197.117L110.865 196.941ZM109.811 200.28C109.512 201.299 109.512 203.073 110.689 203.442L110.162 200.28H109.811Z" fill="white"/>
</svg>